<svg xmlns="http://www.w3.org/2000/svg" width="553" height="451" viewBox="0 0 553 451" version="1.1"><path d="M 143.214 329.966 C 152.407 330.312, 160.282 330.965, 160.714 331.416 C 161.146 331.868, 155.116 332.041, 147.313 331.802 C 134.036 331.395, 133.186 331.479, 134.063 333.118 C 134.578 334.081, 135 335.771, 135 336.873 C 135 338.483, 135.888 339.011, 139.508 339.553 C 141.987 339.925, 144.912 339.995, 146.008 339.708 C 147.103 339.422, 148 339.595, 148 340.094 C 148 340.592, 144.625 341, 140.500 341 C 133.106 341, 131.216 341.975, 134.844 343.916 C 136.894 345.014, 204.330 345.457, 208.538 344.401 C 211.068 343.766, 211.074 343.740, 209.050 342.322 C 206.643 340.636, 206.372 339, 208.500 339 C 209.325 339, 210 339.450, 210 340 C 210 340.550, 211.152 341, 212.559 341 C 214.010 341, 214.851 341.433, 214.500 342 C 214.160 342.550, 214.359 343, 214.941 343 C 215.523 343, 216 343.675, 216 344.500 C 216 345.325, 215.523 346, 214.941 346 C 214.359 346, 214.191 346.500, 214.569 347.112 C 214.947 347.723, 214.636 348.616, 213.878 349.096 C 213.075 349.605, 225.128 349.976, 242.750 349.985 L 273 350 273 347.393 C 273 345.487, 272.597 344.941, 271.500 345.362 C 270.586 345.712, 270 345.363, 270 344.469 C 270 343.661, 270.702 343, 271.559 343 C 272.416 343, 272.840 342.550, 272.500 342 C 272.160 341.450, 272.635 341, 273.554 341 C 274.844 341, 275.126 341.687, 274.787 344 C 274.545 345.650, 274.718 347, 275.173 347 C 275.628 347, 276 346.100, 276 345 C 276 342.264, 277.829 342.470, 278.536 345.286 C 278.851 346.543, 279.872 347.645, 280.805 347.734 C 294.895 349.085, 301.234 349.187, 300.533 348.053 C 300.111 347.370, 298.678 347.020, 297.348 347.274 C 296.019 347.528, 295.167 347.499, 295.457 347.210 C 295.746 346.921, 295.515 346.120, 294.943 345.431 C 294.214 344.553, 294.256 343.960, 295.083 343.449 C 295.757 343.032, 296.686 343.474, 297.249 344.480 C 298.046 345.904, 298.394 345.980, 299.077 344.875 C 299.754 343.780, 300.219 343.905, 301.429 345.505 C 302.357 346.733, 302.949 346.992, 302.968 346.179 C 303.014 344.272, 300.715 342.262, 299.102 342.799 C 298.217 343.094, 297.992 342.823, 298.474 342.043 C 298.887 341.373, 300.075 341.048, 301.113 341.319 C 302.817 341.765, 303 341.193, 303 335.406 L 303 329 214.750 329.169 C 166.213 329.261, 134.021 329.620, 143.214 329.966 M 164.500 331 C 164.889 331.629, 175.813 332, 193.965 332 C 222.320 332, 222.804 332.034, 222.290 334 C 221.854 335.665, 222.247 335.990, 224.633 335.942 C 226.210 335.911, 229.300 335.512, 231.500 335.057 C 235.327 334.266, 235.362 334.225, 232.309 334.115 C 230.554 334.052, 228.823 333.522, 228.462 332.938 C 228.027 332.235, 229.258 331.981, 232.104 332.188 L 236.402 332.500 236.503 338.687 C 236.559 342.089, 236.263 344.662, 235.846 344.405 C 235.429 344.147, 235.341 343.275, 235.651 342.468 C 235.960 341.661, 235.716 341, 235.107 341 C 234.498 341, 234 342.350, 234 344 C 234 346.797, 233.747 347.001, 230.250 347.015 C 228.188 347.024, 225.825 347.467, 225 348 C 224.002 348.645, 229.775 348.974, 242.250 348.985 C 254.094 348.994, 261 348.632, 261 348 C 261 347.450, 259.650 347, 258 347 C 255.159 347, 255 346.785, 255 342.937 C 255 339.667, 255.341 338.909, 256.750 339.052 C 257.712 339.150, 259.625 339.172, 261 339.100 C 262.950 338.998, 263.176 338.765, 262.029 338.039 C 260.336 336.969, 260.642 336.512, 263.675 335.581 C 265.400 335.051, 265.917 335.362, 266.175 337.090 C 266.488 339.188, 267.022 339.281, 280.966 339.674 C 289.482 339.914, 295.698 340.511, 296.077 341.125 C 296.471 341.762, 296.958 341.552, 297.329 340.584 C 297.664 339.713, 298.851 339, 299.969 339 C 301.667 339, 302 338.354, 302 335.059 C 302 332.891, 301.480 330.797, 300.845 330.405 C 300.180 329.993, 299.961 330.127, 300.328 330.722 C 301.025 331.849, 262.887 332.991, 254.951 332.080 L 250.500 331.569 255 330.935 L 259.500 330.300 253.628 330.150 C 248.512 330.019, 247.916 330.193, 249 331.500 C 250.646 333.484, 249.573 333.430, 247.571 331.429 C 246.707 330.564, 246 330.339, 246 330.929 C 246 331.518, 245.298 332, 244.441 332 C 243.584 332, 243.160 331.550, 243.500 331 C 243.908 330.340, 230.491 330, 204 330 C 177.509 330, 164.092 330.340, 164.500 331 M 267.762 330.707 C 269.006 330.946, 270.806 330.937, 271.762 330.687 C 272.718 330.437, 271.700 330.241, 269.500 330.252 C 267.300 330.263, 266.518 330.468, 267.762 330.707 M 290.768 330.725 C 292.565 330.947, 295.265 330.943, 296.768 330.715 C 298.271 330.486, 296.800 330.304, 293.500 330.310 C 290.200 330.315, 288.971 330.502, 290.768 330.725 M 216 339.571 C 216 340.502, 218.778 343, 219.812 343 C 220.337 343, 221.002 342.100, 221.290 341 C 221.724 339.339, 221.320 339, 218.906 339 C 217.308 339, 216 339.257, 216 339.571 M 266 342 C 266 342.550, 266.675 343, 267.500 343 C 268.325 343, 269 342.550, 269 342 C 269 341.450, 268.325 341, 267.500 341 C 266.675 341, 266 341.450, 266 342 M 209.500 346 C 209.160 346.550, 209.246 347.007, 209.691 347.015 C 210.136 347.024, 209.825 347.467, 209 348 C 207.951 348.678, 207.885 348.974, 208.781 348.985 C 209.486 348.993, 210.321 348.328, 210.636 347.506 C 210.952 346.684, 211.682 346.303, 212.259 346.660 C 212.872 347.039, 213.012 346.829, 212.595 346.155 C 211.718 344.735, 210.325 344.665, 209.500 346 M 139.294 348.203 C 139.957 348.625, 155.575 348.909, 174 348.835 C 192.425 348.761, 206.375 348.561, 205 348.391 C 199.230 347.677, 138.191 347.502, 139.294 348.203 M 218 348 C 218 348.550, 218.900 349, 220 349 C 221.100 349, 222 348.550, 222 348 C 222 347.450, 221.100 347, 220 347 C 218.900 347, 218 347.450, 218 348 M 222 371.722 C 231.966 372.092, 235.149 373.014, 230 374.039 L 226.500 374.737 230.114 374.868 C 232.101 374.941, 236.151 374.519, 239.114 373.931 C 242.076 373.342, 248.550 372.507, 253.500 372.073 C 260.310 371.477, 256.539 371.300, 238 371.346 C 224.525 371.380, 217.325 371.549, 222 371.722 M 274 372.745 C 274 373.339, 272.226 374.124, 270.058 374.490 C 266.513 375.089, 262.148 378, 264.794 378 C 265.366 378, 266.037 377.438, 266.286 376.750 C 266.643 375.765, 267.222 375.786, 269.014 376.849 C 271.017 378.036, 271.216 378.006, 270.676 376.599 C 270.246 375.478, 270.633 375, 271.972 375 C 273.980 375, 275.623 373.290, 274.600 372.267 C 274.270 371.937, 274 372.152, 274 372.745 M 215 376 C 217.521 377.972, 223.624 378.818, 222.527 377.044 C 222.202 376.518, 221.202 376.369, 220.304 376.714 C 219.150 377.156, 218.903 376.966, 219.461 376.063 C 220.053 375.106, 219.686 374.965, 218 375.500 C 216.467 375.987, 215.968 375.861, 216.434 375.107 C 216.860 374.418, 216.246 374.008, 214.809 374.022 L 212.500 374.044 215 376 M 227 376.871 C 227 377.350, 232.391 377.709, 238.979 377.667 C 245.567 377.626, 250.405 377.241, 249.729 376.811 C 248.036 375.736, 227 375.791, 227 376.871 M 256.250 377.689 C 257.212 377.941, 258.788 377.941, 259.750 377.689 C 260.712 377.438, 259.925 377.232, 258 377.232 C 256.075 377.232, 255.287 377.438, 256.250 377.689 M 233.264 379.718 C 234.784 379.947, 237.034 379.941, 238.264 379.704 C 239.494 379.467, 238.250 379.279, 235.500 379.286 C 232.750 379.294, 231.744 379.488, 233.264 379.718" stroke="none" fill="#ffffff" fill-rule="evenodd"/><path d="M 143.214 329.966 C 152.407 330.312, 160.282 330.965, 160.714 331.416 C 161.146 331.868, 155.116 332.041, 147.313 331.802 C 134.036 331.395, 133.186 331.479, 134.063 333.118 C 134.578 334.081, 135 335.771, 135 336.873 C 135 338.483, 135.888 339.011, 139.508 339.553 C 141.987 339.925, 144.912 339.995, 146.008 339.708 C 147.103 339.422, 148 339.595, 148 340.094 C 148 340.592, 144.625 341, 140.500 341 C 133.106 341, 131.216 341.975, 134.844 343.916 C 136.894 345.014, 204.330 345.457, 208.538 344.401 C 211.068 343.766, 211.074 343.740, 209.050 342.322 C 206.643 340.636, 206.372 339, 208.500 339 C 209.325 339, 210 339.450, 210 340 C 210 340.550, 211.152 341, 212.559 341 C 214.010 341, 214.851 341.433, 214.500 342 C 214.160 342.550, 214.359 343, 214.941 343 C 215.523 343, 216 343.675, 216 344.500 C 216 345.325, 215.523 346, 214.941 346 C 214.359 346, 214.191 346.500, 214.569 347.112 C 214.947 347.723, 214.636 348.616, 213.878 349.096 C 213.075 349.605, 225.128 349.976, 242.750 349.985 L 273 350 273 347.393 C 273 345.487, 272.597 344.941, 271.500 345.362 C 270.586 345.712, 270 345.363, 270 344.469 C 270 343.661, 270.702 343, 271.559 343 C 272.416 343, 272.840 342.550, 272.500 342 C 272.160 341.450, 272.635 341, 273.554 341 C 274.844 341, 275.126 341.687, 274.787 344 C 274.545 345.650, 274.718 347, 275.173 347 C 275.628 347, 276 346.100, 276 345 C 276 342.264, 277.829 342.470, 278.536 345.286 C 278.851 346.543, 279.872 347.645, 280.805 347.734 C 294.895 349.085, 301.234 349.187, 300.533 348.053 C 300.111 347.370, 298.678 347.020, 297.348 347.274 C 296.019 347.528, 295.167 347.499, 295.457 347.210 C 295.746 346.921, 295.515 346.120, 294.943 345.431 C 294.214 344.553, 294.256 343.960, 295.083 343.449 C 295.757 343.032, 296.686 343.474, 297.249 344.480 C 298.046 345.904, 298.394 345.980, 299.077 344.875 C 299.754 343.780, 300.219 343.905, 301.429 345.505 C 302.357 346.733, 302.949 346.992, 302.968 346.179 C 303.014 344.272, 300.715 342.262, 299.102 342.799 C 298.217 343.094, 297.992 342.823, 298.474 342.043 C 298.887 341.373, 300.075 341.048, 301.113 341.319 C 302.817 341.765, 303 341.193, 303 335.406 L 303 329 214.750 329.169 C 166.213 329.261, 134.021 329.620, 143.214 329.966 M 164.500 331 C 164.889 331.629, 175.813 332, 193.965 332 C 222.320 332, 222.804 332.034, 222.290 334 C 221.854 335.665, 222.247 335.990, 224.633 335.942 C 226.210 335.911, 229.300 335.512, 231.500 335.057 C 235.327 334.266, 235.362 334.225, 232.309 334.115 C 230.554 334.052, 228.823 333.522, 228.462 332.938 C 228.027 332.235, 229.258 331.981, 232.104 332.188 L 236.402 332.500 236.503 338.687 C 236.559 342.089, 236.263 344.662, 235.846 344.405 C 235.429 344.147, 235.341 343.275, 235.651 342.468 C 235.960 341.661, 235.716 341, 235.107 341 C 234.498 341, 234 342.350, 234 344 C 234 346.797, 233.747 347.001, 230.250 347.015 C 228.188 347.024, 225.825 347.467, 225 348 C 224.002 348.645, 229.775 348.974, 242.250 348.985 C 254.094 348.994, 261 348.632, 261 348 C 261 347.450, 259.650 347, 258 347 C 255.159 347, 255 346.785, 255 342.937 C 255 339.667, 255.341 338.909, 256.750 339.052 C 257.712 339.150, 259.625 339.172, 261 339.100 C 262.950 338.998, 263.176 338.765, 262.029 338.039 C 260.336 336.969, 260.642 336.512, 263.675 335.581 C 265.400 335.051, 265.917 335.362, 266.175 337.090 C 266.488 339.188, 267.022 339.281, 280.966 339.674 C 289.482 339.914, 295.698 340.511, 296.077 341.125 C 296.471 341.762, 296.958 341.552, 297.329 340.584 C 297.664 339.713, 298.851 339, 299.969 339 C 301.667 339, 302 338.354, 302 335.059 C 302 332.891, 301.480 330.797, 300.845 330.405 C 300.180 329.993, 299.961 330.127, 300.328 330.722 C 301.025 331.849, 262.887 332.991, 254.951 332.080 L 250.500 331.569 255 330.935 L 259.500 330.300 253.628 330.150 C 248.512 330.019, 247.916 330.193, 249 331.500 C 250.646 333.484, 249.573 333.430, 247.571 331.429 C 246.707 330.564, 246 330.339, 246 330.929 C 246 331.518, 245.298 332, 244.441 332 C 243.584 332, 243.160 331.550, 243.500 331 C 243.908 330.340, 230.491 330, 204 330 C 177.509 330, 164.092 330.340, 164.500 331 M 267.762 330.707 C 269.006 330.946, 270.806 330.937, 271.762 330.687 C 272.718 330.437, 271.700 330.241, 269.500 330.252 C 267.300 330.263, 266.518 330.468, 267.762 330.707 M 290.768 330.725 C 292.565 330.947, 295.265 330.943, 296.768 330.715 C 298.271 330.486, 296.800 330.304, 293.500 330.310 C 290.200 330.315, 288.971 330.502, 290.768 330.725 M 216 339.571 C 216 340.502, 218.778 343, 219.812 343 C 220.337 343, 221.002 342.100, 221.290 341 C 221.724 339.339, 221.320 339, 218.906 339 C 217.308 339, 216 339.257, 216 339.571 M 266 342 C 266 342.550, 266.675 343, 267.500 343 C 268.325 343, 269 342.550, 269 342 C 269 341.450, 268.325 341, 267.500 341 C 266.675 341, 266 341.450, 266 342 M 209.500 346 C 209.160 346.550, 209.246 347.007, 209.691 347.015 C 210.136 347.024, 209.825 347.467, 209 348 C 207.951 348.678, 207.885 348.974, 208.781 348.985 C 209.486 348.993, 210.321 348.328, 210.636 347.506 C 210.952 346.684, 211.682 346.303, 212.259 346.660 C 212.872 347.039, 213.012 346.829, 212.595 346.155 C 211.718 344.735, 210.325 344.665, 209.500 346 M 139.294 348.203 C 139.957 348.625, 155.575 348.909, 174 348.835 C 192.425 348.761, 206.375 348.561, 205 348.391 C 199.230 347.677, 138.191 347.502, 139.294 348.203 M 218 348 C 218 348.550, 218.900 349, 220 349 C 221.100 349, 222 348.550, 222 348 C 222 347.450, 221.100 347, 220 347 C 218.900 347, 218 347.450, 218 348 M 222 371.722 C 231.966 372.092, 235.149 373.014, 230 374.039 L 226.500 374.737 230.114 374.868 C 232.101 374.941, 236.151 374.519, 239.114 373.931 C 242.076 373.342, 248.550 372.507, 253.500 372.073 C 260.310 371.477, 256.539 371.300, 238 371.346 C 224.525 371.380, 217.325 371.549, 222 371.722 M 274 372.745 C 274 373.339, 272.226 374.124, 270.058 374.490 C 266.513 375.089, 262.148 378, 264.794 378 C 265.366 378, 266.037 377.438, 266.286 376.750 C 266.643 375.765, 267.222 375.786, 269.014 376.849 C 271.017 378.036, 271.216 378.006, 270.676 376.599 C 270.246 375.478, 270.633 375, 271.972 375 C 273.980 375, 275.623 373.290, 274.600 372.267 C 274.270 371.937, 274 372.152, 274 372.745 M 215 376 C 217.521 377.972, 223.624 378.818, 222.527 377.044 C 222.202 376.518, 221.202 376.369, 220.304 376.714 C 219.150 377.156, 218.903 376.966, 219.461 376.063 C 220.053 375.106, 219.686 374.965, 218 375.500 C 216.467 375.987, 215.968 375.861, 216.434 375.107 C 216.860 374.418, 216.246 374.008, 214.809 374.022 L 212.500 374.044 215 376 M 227 376.871 C 227 377.350, 232.391 377.709, 238.979 377.667 C 245.567 377.626, 250.405 377.241, 249.729 376.811 C 248.036 375.736, 227 375.791, 227 376.871 M 256.250 377.689 C 257.212 377.941, 258.788 377.941, 259.750 377.689 C 260.712 377.438, 259.925 377.232, 258 377.232 C 256.075 377.232, 255.287 377.438, 256.250 377.689 M 233.264 379.718 C 234.784 379.947, 237.034 379.941, 238.264 379.704 C 239.494 379.467, 238.250 379.279, 235.500 379.286 C 232.750 379.294, 231.744 379.488, 233.264 379.718" stroke="none" fill="#ffffff" fill-rule="evenodd"/><path d="M 168.915 209.500 C 168.536 212.237, 168.127 212.527, 164.250 212.807 C 158.585 213.217, 158.788 215, 164.500 215 L 169 215 169 220 L 169 225 164 225 C 157.638 225, 157.434 226.790, 163.750 227.195 L 168.500 227.500 168.500 232.500 L 168.500 237.500 163.500 238.060 L 158.500 238.620 163.500 239.060 L 168.500 239.500 168.500 244.500 L 168.500 249.500 163.500 250.052 C 158.230 250.634, 158.981 251.715, 165 252.211 C 168.419 252.493, 168.507 252.610, 168.805 257.250 L 169.110 262 165.637 262 C 159.489 262, 157.945 263.445, 163.500 264 L 168.500 264.500 168.500 269.500 L 168.500 274.500 163.725 274.806 C 157.784 275.186, 158.473 277, 164.559 277 L 169 277 169 282 L 169 287 163.800 287 C 157.757 287, 158.300 288.692, 164.500 289.183 C 168.249 289.480, 168.527 289.720, 168.923 293 L 169.347 296.500 169.923 293 C 170.384 290.204, 171.003 289.440, 173 289.201 C 177.867 288.619, 178.553 287.644, 174.500 287.068 C 170.530 286.504, 170.498 286.465, 170.195 281.750 L 169.890 277 175.445 277 L 181 277 181 280.559 C 181 282.677, 181.405 283.868, 182 283.500 C 182.550 283.160, 183 281.559, 183 279.941 C 183 277.353, 183.353 277, 185.941 277 C 190.059 277, 190.742 275.197, 186.769 274.815 C 183.577 274.507, 183.493 274.376, 183.198 269.250 L 182.895 264 187.929 264 C 192.462 264, 193.024 264.248, 193.589 266.498 C 193.934 267.872, 193.916 269.784, 193.549 270.748 C 193.109 271.901, 193.217 272.158, 193.864 271.500 C 194.404 270.950, 194.993 269.150, 195.173 267.500 C 195.446 264.996, 195.996 264.446, 198.500 264.173 C 202.264 263.763, 204.618 261.740, 201 262.025 C 195.200 262.481, 195 262.313, 195 257 L 195 252 200.500 252 L 206 252 206.015 255.750 C 206.027 258.539, 206.279 259.116, 207 258 C 207.533 257.175, 207.976 255.525, 207.985 254.333 C 207.993 253.142, 208.563 251.938, 209.250 251.659 C 210.182 251.281, 210.206 250.942, 209.344 250.326 C 208.351 249.615, 207.590 244.294, 207.903 240.250 C 208.062 238.203, 216.680 238.632, 217.950 240.750 C 218.950 242.417, 219.050 242.417, 220.050 240.750 C 221.458 238.402, 229.506 238.271, 230.393 240.582 C 231.406 243.221, 231.073 248.527, 229.817 249.783 C 227.834 251.766, 229.809 252.463, 236.558 252.160 L 243 251.870 243 255.376 C 243 257.304, 243.450 259.160, 244 259.500 C 244.604 259.873, 245 258.510, 245 256.059 L 245 252 250.052 252 L 255.105 252 254.802 257.250 C 254.518 262.186, 254.351 262.484, 252 262.235 C 249.804 262.001, 249.926 262.205, 253 263.907 C 255.151 265.098, 256.866 265.489, 257.450 264.922 C 258.769 263.641, 266.364 263.764, 267.687 265.087 C 268.470 265.870, 268.962 265.870, 269.446 265.087 C 269.816 264.489, 270.965 264, 272 264 C 273.035 264, 274.119 263.617, 274.409 263.148 C 274.698 262.679, 273.483 262.368, 271.708 262.457 L 268.481 262.618 268.990 257.559 L 269.500 252.500 274.750 252.198 C 279.247 251.939, 280.003 252.154, 280.022 253.698 C 280.041 255.203, 280.359 255.090, 281.953 253.016 C 283.092 251.534, 283.462 250.285, 282.870 249.919 C 282.324 249.582, 282.018 247.100, 282.189 244.403 L 282.500 239.500 288 239.495 L 293.500 239.491 293.805 234.745 C 293.988 231.891, 293.689 230, 293.055 230 C 292.475 230, 292 231.825, 292 234.055 L 292 238.110 287.250 237.805 L 282.500 237.500 282.198 232.250 L 281.895 227 286.448 227 C 288.951 227, 291 226.550, 291 226 C 291 225.450, 288.975 225, 286.500 225 L 282 225 282 220 L 282 215 287 215 L 292 215 292 220.059 C 292 223.177, 292.384 224.881, 293 224.500 C 293.550 224.160, 294 221.884, 294 219.441 L 294 215 299.500 215 L 305 215 305 219.667 C 305 222.233, 305.338 223.995, 305.750 223.581 C 306.163 223.167, 306.500 221.180, 306.500 219.164 L 306.500 215.500 311.750 215.198 L 317 214.895 317 219.948 L 317 225 313.500 225 C 311.575 225, 310 225.450, 310 226 C 310 226.550, 311.575 227, 313.500 227 L 317 227 317 232.500 L 317 238 313.750 238.118 L 310.500 238.237 313.500 238.874 C 316.318 239.472, 316.518 239.829, 316.802 244.756 L 317.105 250 312.120 250 C 308.013 250, 307.023 249.648, 306.500 248 C 306.151 246.900, 306.139 245.138, 306.473 244.084 C 306.808 243.030, 306.613 241.879, 306.041 241.525 C 305.378 241.116, 305 242.537, 305 245.441 L 305 250 299.500 250 C 295.889 250, 294 249.588, 294 248.800 C 294 247.886, 293.722 247.878, 292.835 248.765 C 292.150 249.450, 291.759 252.418, 291.887 255.965 L 292.105 262 287.707 262 C 280.742 262, 279.781 263.762, 279.833 276.445 L 279.877 287 275.139 287 C 272.532 287, 269.860 286.460, 269.200 285.800 C 268.267 284.867, 268 284.867, 268 285.800 C 268 286.588, 266.111 287, 262.500 287 L 257 287 257 282 C 257 279.250, 257.450 277, 258 277 C 259.738 277, 259.083 274.533, 257 273.232 C 255.332 272.190, 255 272.233, 255 273.492 C 255 274.635, 253.790 275, 250 275 C 245.517 275, 244.988 274.768, 244.882 272.750 C 244.816 271.512, 244.839 270.095, 244.931 269.601 C 245.024 269.106, 244.766 267.981, 244.359 267.101 C 243.862 266.026, 243.435 266.980, 243.059 270 L 242.500 274.500 237.500 274.500 L 232.500 274.500 232.500 269.500 C 232.500 264.562, 232.543 264.493, 236 263.926 L 239.500 263.351 236.500 262.541 C 234.850 262.096, 232.679 261.017, 231.676 260.144 C 230.149 258.815, 229.905 258.796, 230.176 260.028 C 230.441 261.232, 228.785 261.538, 221.093 261.707 C 215.920 261.820, 211.217 262.383, 210.643 262.957 C 209.919 263.681, 210.884 264, 213.800 264 L 218 264 218 269.500 L 218 275 213 275 L 208 275 208 270.300 C 208 266.663, 207.730 265.870, 206.809 266.791 C 206.153 267.447, 205.591 269.449, 205.559 271.241 C 205.505 274.224, 205.204 274.527, 202 274.821 C 200.075 274.998, 198.050 275.593, 197.500 276.143 C 196.833 276.809, 196.833 277.080, 197.500 276.953 C 198.050 276.849, 200.188 276.816, 202.250 276.882 L 206 277 206 282 L 206 287 200.500 287 L 195 287 195 282.941 C 195 280.384, 194.615 279.120, 193.959 279.525 C 193.387 279.879, 193.172 280.967, 193.482 281.943 C 194.494 285.133, 193.007 287, 189.452 287 C 184.538 287, 184.262 288.831, 189.121 289.191 C 192.928 289.473, 193.316 289.759, 193.616 292.500 C 194.221 298.015, 193.359 299, 187.933 299 L 183 299 183 294.800 C 183 289.811, 181.304 290.745, 180.821 296 C 180.546 298.997, 180.165 299.464, 178.167 299.247 C 176.883 299.108, 175.083 299.432, 174.167 299.967 C 172.897 300.708, 173.512 300.946, 176.750 300.970 C 180.935 301, 181 301.054, 181 304.500 C 181 308.911, 182.766 309.113, 183.187 304.750 C 183.494 301.558, 183.590 301.500, 188.500 301.500 C 193.438 301.500, 193.507 301.544, 194.077 305 L 194.653 308.500 195.077 305 C 195.497 301.523, 195.533 301.500, 200.500 301.500 C 205.450 301.500, 205.505 301.535, 206.014 305 C 206.415 307.731, 206.689 308.098, 207.264 306.668 C 207.669 305.661, 208 303.973, 208 302.918 C 208 301.283, 208.738 301, 213 301 L 218 301 218 304.500 C 218 308.911, 219.766 309.113, 220.187 304.750 C 220.483 301.680, 220.743 301.483, 224.901 301.185 C 229.663 300.844, 230.868 301.778, 231.116 306 C 231.228 307.905, 231.410 307.667, 231.882 305 C 232.491 301.549, 232.570 301.500, 237.500 301.500 C 242.437 301.500, 242.507 301.544, 243.079 305 C 243.651 308.457, 244.510 307.849, 245.200 303.500 C 245.458 301.879, 246.417 301.442, 250.259 301.195 C 254.926 300.895, 255 300.937, 255 303.886 C 255 308.044, 256.800 308.771, 257.185 304.769 C 257.495 301.555, 257.584 301.500, 262.500 301.500 C 267.438 301.500, 267.507 301.544, 268.077 305 L 268.653 308.500 269.077 305 C 269.495 301.545, 269.568 301.496, 274.750 301.198 L 280 300.895 280 304.448 C 280 306.401, 280.450 308, 281 308 C 281.550 308, 282 306.425, 282 304.500 L 282 301 287 301 C 291.867 301, 292 301.078, 292 303.941 C 292 308.059, 293.803 308.742, 294.185 304.769 C 294.486 301.643, 294.718 301.476, 299.500 300.940 L 304.500 300.380 299.500 299.940 L 294.500 299.500 294.198 294.250 L 293.895 289 298.389 289 C 300.860 289, 303.160 288.550, 303.500 288 C 303.881 287.384, 302.177 287, 299.059 287 L 294 287 294 282 L 294 277 299.378 277 C 304.452 277, 307.322 275.612, 306.917 273.355 C 306.832 272.885, 306.816 270.587, 306.882 268.250 L 307 264 312 264 L 317 264 317 269 C 317 271.750, 317.450 274, 318 274 C 318.550 274, 319 271.750, 319 269 L 319 264 323.559 264 C 326.344 264, 327.878 263.611, 327.500 263 C 327.160 262.450, 325.109 262, 322.941 262 L 319 262 319 257 L 319 252 323.500 252 C 325.975 252, 328 251.550, 328 251 C 328 250.450, 325.951 250, 323.448 250 L 318.895 250 319.198 244.750 L 319.500 239.500 324 238.935 L 328.500 238.371 324 237.935 L 319.500 237.500 319.198 232.250 L 318.895 227 323.448 227 C 325.951 227, 328 226.550, 328 226 C 328 225.450, 325.975 225, 323.500 225 L 319 225 319 220 L 319 215 323.500 215 C 325.975 215, 328 214.550, 328 214 C 328 213.450, 325.975 213, 323.500 213 C 319.167 213, 319 212.889, 319 210 C 319 208.350, 318.550 207, 318 207 C 317.450 207, 317 208.350, 317 210 C 317 212.933, 316.889 213, 312 213 C 307.366 213, 307 212.822, 307 210.559 C 307 207.092, 305.200 206.411, 304.818 209.733 C 304.518 212.344, 304.219 212.500, 299.500 212.500 C 294.789 212.500, 294.482 212.341, 294.184 209.750 C 293.756 206.038, 292 206.239, 292 210 C 292 212.933, 291.889 213, 287 213 C 282.111 213, 282 212.933, 282 210 C 282 208.350, 281.550 207, 281 207 C 280.450 207, 280 208.374, 280 210.052 L 280 213.105 274.756 212.802 C 269.817 212.518, 269.477 212.325, 268.920 209.500 L 268.329 206.500 267.915 209.500 C 267.520 212.352, 267.241 212.515, 262.250 212.802 L 257 213.105 257 210.052 C 257 208.374, 256.550 207, 256 207 C 255.450 207, 255 208.350, 255 210 C 255 212.933, 254.889 213, 250 213 C 244.970 213, 244.551 212.647, 244.948 208.750 C 245.046 207.787, 244.647 207, 244.063 207 C 243.478 207, 243 208.374, 243 210.052 L 243 213.105 237.756 212.802 C 232.817 212.518, 232.477 212.325, 231.920 209.500 L 231.329 206.500 230.915 209.500 C 230.520 212.352, 230.241 212.515, 225.250 212.802 L 220 213.105 220 210.052 C 220 208.374, 219.550 207, 219 207 C 218.450 207, 218 208.350, 218 210 C 218 212.933, 217.889 213, 213 213 C 208.111 213, 208 212.933, 208 210 C 208 208.350, 207.550 207, 207 207 C 206.450 207, 206 208.374, 206 210.052 L 206 213.105 200.756 212.802 C 195.829 212.518, 195.472 212.318, 194.874 209.500 C 194.523 207.850, 194.131 206.950, 194.003 207.500 C 193.874 208.050, 193.665 208.950, 193.537 209.500 C 193.409 210.050, 193.236 211.063, 193.152 211.750 C 193.053 212.563, 191.252 213, 188 213 C 183.111 213, 183 212.933, 183 210 C 183 208.350, 182.550 207, 182 207 C 181.450 207, 181 208.374, 181 210.052 L 181 213.105 175.756 212.802 C 170.817 212.518, 170.477 212.325, 169.920 209.500 L 169.329 206.500 168.915 209.500 M 170.195 219.750 L 170.500 224.500 175.750 224.802 L 181 225.105 181 220.052 L 181 215 175.445 215 L 169.890 215 170.195 219.750 M 183 220 L 183 225 187.912 225 L 192.824 225 193.494 221.037 C 193.862 218.857, 193.875 216.607, 193.523 216.037 C 193.170 215.467, 190.659 215, 187.941 215 L 183 215 183 220 M 195 220 L 195 225 200.500 225 L 206 225 206 220 L 206 215 200.500 215 L 195 215 195 220 M 208 220 L 208 225 213 225 L 218 225 218 220 L 218 215 213 215 L 208 215 208 220 M 220 220 L 220 225.105 225.250 224.802 L 230.500 224.500 230.500 220 L 230.500 215.500 225.250 215.198 L 220 214.895 220 220 M 232.195 219.750 L 232.500 224.500 237.750 224.802 L 243 225.105 243 220.052 L 243 215 237.445 215 L 231.890 215 232.195 219.750 M 244.758 216.250 C 244.507 216.938, 244.508 219.188, 244.760 221.250 L 245.219 225 250.109 225 L 255 225 255 220 L 255 215 250.107 215 C 247.103 215, 245.038 215.482, 244.758 216.250 M 257 220 L 257 225 262.500 225 L 268 225 268 220 L 268 215 262.500 215 L 257 215 257 220 M 269.398 216.405 C 269.102 217.177, 269.003 219.315, 269.180 221.155 C 269.494 224.438, 269.597 224.506, 274.750 224.802 L 280 225.105 280 220.052 L 280 215 274.969 215 C 271.570 215, 269.762 215.456, 269.398 216.405 M 170.402 228.395 C 170.108 229.162, 170.009 231.524, 170.183 233.645 L 170.500 237.500 175.750 237.802 L 181 238.105 181 232.552 L 181 227 175.969 227 C 172.587 227, 170.762 227.457, 170.402 228.395 M 183.198 232.250 L 183.500 237.500 188.250 237.805 L 193 238.110 193 232.555 L 193 227 187.948 227 L 182.895 227 183.198 232.250 M 195.423 228.340 C 195.117 229.137, 195.009 231.524, 195.183 233.645 L 195.500 237.500 200.500 237.500 L 205.500 237.500 205.500 232.500 L 205.500 227.500 200.740 227.195 C 197.292 226.974, 195.826 227.289, 195.423 228.340 M 208 232.500 L 208 238 213 238 L 218 238 218 232.500 L 218 227 213 227 L 208 227 208 232.500 M 220 232.500 L 220 238.105 225.250 237.802 L 230.500 237.500 230.500 232.500 L 230.500 227.500 225.250 227.198 L 220 226.895 220 232.500 M 232.402 228.395 C 232.108 229.162, 232.009 231.524, 232.183 233.645 L 232.500 237.500 237.500 237.500 L 242.500 237.500 242.802 232.250 L 243.105 227 238.021 227 C 234.595 227, 232.763 227.455, 232.402 228.395 M 245.198 232.250 L 245.500 237.500 250.250 237.805 L 255 238.110 255 232.555 L 255 227 249.948 227 L 244.895 227 245.198 232.250 M 257.198 232.250 L 257.500 237.500 262.500 237.500 L 267.500 237.500 267.802 232.250 L 268.105 227 262.500 227 L 256.895 227 257.198 232.250 M 269.402 228.395 C 269.108 229.162, 269.009 231.524, 269.183 233.645 L 269.500 237.500 274.500 237.500 L 279.500 237.500 279.802 232.250 L 280.105 227 275.021 227 C 271.595 227, 269.763 227.455, 269.402 228.395 M 302.573 237.959 C 300.742 238.616, 300.737 238.685, 302.466 239.349 C 304.453 240.111, 305.409 239.650, 304.854 238.197 C 304.659 237.686, 303.633 237.579, 302.573 237.959 M 170.423 240.340 C 170.117 241.137, 170.009 243.524, 170.183 245.645 L 170.500 249.500 175.804 249.804 L 181.108 250.108 180.804 244.804 L 180.500 239.500 175.740 239.195 C 172.292 238.974, 170.826 239.289, 170.423 240.340 M 183.713 239.621 C 183.321 240.013, 183 242.532, 183 245.219 L 183 250.105 188.250 249.802 L 193.500 249.500 193.462 244.500 L 193.423 239.500 188.924 239.204 C 186.450 239.041, 184.105 239.229, 183.713 239.621 M 195.713 239.621 C 195.321 240.013, 195 242.532, 195 245.219 L 195 250.105 200.250 249.802 L 205.500 249.500 205.500 244.500 L 205.500 239.500 200.963 239.204 C 198.467 239.041, 196.105 239.229, 195.713 239.621 M 233.185 239.878 C 232.334 240.409, 231.981 242.251, 232.185 245.099 L 232.500 249.500 237.804 249.804 L 243.108 250.108 242.804 244.804 L 242.500 239.500 238.500 239.279 C 236.300 239.158, 233.908 239.428, 233.185 239.878 M 245.667 239.667 C 245.300 240.033, 245 242.508, 245 245.167 L 245 250 250 250 L 255 250 255 244.500 L 255 239 250.667 239 C 248.283 239, 246.033 239.300, 245.667 239.667 M 257.402 240.395 C 257.108 241.162, 257.009 243.524, 257.183 245.645 L 257.500 249.500 262.750 249.802 L 268 250.105 268 245.159 C 268 239.696, 267.253 239, 261.387 239 C 259.359 239, 257.717 239.575, 257.402 240.395 M 270.185 239.838 C 269.338 240.392, 268.982 242.264, 269.185 245.099 L 269.500 249.500 274.804 249.804 L 280.108 250.108 279.804 244.804 L 279.500 239.500 275.500 239.239 C 273.300 239.096, 270.908 239.365, 270.185 239.838 M 216.629 249.481 C 215.287 250.497, 214.936 251.608, 215.388 253.408 C 215.896 255.435, 216.573 255.878, 218.902 255.709 C 221.112 255.549, 221.703 255.069, 221.433 253.658 C 221.188 252.380, 221.526 251.988, 222.540 252.377 C 223.496 252.744, 224 252.298, 224 251.085 C 224 250.010, 223.056 248.980, 221.750 248.630 C 218.793 247.838, 218.799 247.837, 216.629 249.481 M 170.667 252.667 C 169.600 253.733, 169.898 261.799, 171.017 262.172 C 171.577 262.359, 174.052 262.351, 176.517 262.155 L 181 261.799 181 256.899 L 181 252 176.167 252 C 173.508 252, 171.033 252.300, 170.667 252.667 M 183.196 257.180 L 183.500 262.469 188 262.144 C 190.475 261.965, 192.606 261.715, 192.736 261.589 C 192.866 261.464, 193.091 259.367, 193.236 256.930 L 193.500 252.500 188.196 252.196 L 182.892 251.892 183.196 257.180 M 257 256.948 L 257 262 261.500 262 C 263.975 262, 266.337 262, 266.750 262 C 267.163 262, 267.500 259.863, 267.500 257.250 L 267.500 252.500 262.250 252.198 L 257 251.895 257 256.948 M 294 257 L 294 262 299.500 262 L 305 262 305 257 L 305 252 299.500 252 L 294 252 294 257 M 306.435 255.492 C 305.499 260.487, 306.321 261.725, 310.864 262.158 C 316.614 262.707, 317 262.377, 317 256.917 L 317 252 312.045 252 C 307.177 252, 307.079 252.061, 306.435 255.492 M 170.402 265.395 C 170.108 266.162, 170.009 268.524, 170.183 270.645 L 170.500 274.500 175.750 274.802 L 181 275.105 181 269.552 L 181 264 175.969 264 C 172.587 264, 170.762 264.457, 170.402 265.395 M 220 269.500 L 220 275.105 225.250 274.802 L 230.500 274.500 230.500 269.500 L 230.500 264.500 225.250 264.198 L 220 263.895 220 269.500 M 282 269.500 L 282 275 287 275 L 292 275 292 269.500 L 292 264 287 264 L 282 264 282 269.500 M 294.423 265.340 C 294.117 266.137, 294.009 268.524, 294.183 270.645 L 294.500 274.500 299.500 274.500 L 304.500 274.500 304.500 269.500 L 304.500 264.500 299.740 264.195 C 296.292 263.974, 294.826 264.289, 294.423 265.340 M 266.750 273.217 C 264.794 275.665, 264.518 277, 265.969 277 C 266.501 277, 266.678 277.675, 266.362 278.500 C 266.045 279.325, 266.284 280, 266.893 280 C 267.502 280, 268 279.495, 268 278.878 C 268 278.116, 268.496 278.166, 269.542 279.035 C 270.638 279.945, 271.395 280.005, 272.155 279.245 C 273.508 277.892, 272.265 275.725, 270.681 276.676 C 270.008 277.079, 270.091 276.656, 270.872 275.692 C 271.973 274.335, 271.998 273.703, 271 272.500 C 269.360 270.524, 268.830 270.613, 266.750 273.217 M 220.550 276.783 C 220.248 277.086, 220 279.532, 220 282.219 L 220 287.105 225.250 286.802 L 230.500 286.500 230.691 282.196 C 230.807 279.599, 230.410 277.737, 229.691 277.502 C 227.351 276.735, 221.090 276.243, 220.550 276.783 M 233.017 276.828 C 232.458 277.014, 232 279.379, 232 282.083 L 232 287 237.500 287 L 243 287 243 282.101 L 243 277.201 238.517 276.845 C 236.052 276.649, 233.577 276.641, 233.017 276.828 M 283.673 276.823 C 282.389 277.072, 282 278.252, 282 281.907 C 282 284.525, 282.193 286.860, 282.429 287.096 C 282.666 287.332, 284.938 287.360, 287.478 287.158 L 292.097 286.791 291.799 281.737 C 291.510 276.848, 291.400 276.680, 288.423 276.592 C 286.730 276.541, 284.593 276.645, 283.673 276.823 M 207.843 280.250 C 207.139 286.324, 207.663 287, 213.073 287 L 218 287 218 282 L 218 277 213.109 277 C 208.336 277, 208.210 277.078, 207.843 280.250 M 244.834 280.938 C 244.294 286.606, 244.635 287, 250.083 287 L 255 287 255 282 L 255 277 250.105 277 L 245.210 277 244.834 280.938 M 380.655 289.829 C 379.745 290.835, 379 292.635, 379 293.829 C 379 296.628, 382.319 299.945, 384.673 299.499 C 385.678 299.309, 387.111 299.119, 387.857 299.077 C 388.661 299.031, 388.971 298.368, 388.618 297.448 C 388.291 296.594, 388.435 296.151, 388.939 296.463 C 390.708 297.555, 391.185 292.931, 389.560 290.451 C 387.609 287.473, 383.074 287.156, 380.655 289.829 M 195.667 289.667 C 194.751 290.583, 194.822 298.772, 195.751 299.346 C 196.164 299.602, 198.639 299.570, 201.251 299.275 L 206 298.740 206 293.870 L 206 289 201.167 289 C 198.508 289, 196.033 289.300, 195.667 289.667 M 207.904 289.429 C 207.668 289.666, 207.636 291.890, 207.833 294.373 C 208.220 299.233, 209.325 299.944, 215.250 299.144 C 217.824 298.797, 218 298.461, 218 293.887 L 218 289 213.167 289 C 210.508 289, 208.140 289.193, 207.904 289.429 M 220 293.836 C 220 298.688, 220.063 298.789, 223.486 299.431 C 228.961 300.458, 231.171 298.724, 230.804 293.686 L 230.500 289.500 225.250 289.198 L 220 288.895 220 293.836 M 232.667 289.667 C 232.300 290.033, 232 292.231, 232 294.550 C 232 299.322, 233.523 300.276, 239.573 299.295 C 242.930 298.750, 243 298.639, 243 293.869 L 243 289 238.167 289 C 235.508 289, 233.033 289.300, 232.667 289.667 M 245 293.921 C 245 298.566, 245.166 298.878, 247.978 299.495 C 253.453 300.698, 255 299.472, 255 293.933 L 255 289 250 289 L 245 289 245 293.921 M 257 293.892 C 257 299.232, 257.984 299.988, 264.500 299.654 C 267.391 299.506, 267.511 299.310, 267.802 294.250 L 268.105 289 262.552 289 L 257 289 257 293.892 M 269.667 289.667 C 268.748 290.585, 268.822 298.979, 269.750 299.088 C 271.068 299.242, 276.439 299.271, 278.250 299.133 C 279.666 299.025, 280 298.045, 280 294 L 280 289 275.167 289 C 272.508 289, 270.033 289.300, 269.667 289.667 M 282.198 294.250 L 282.500 299.500 287 299.487 L 291.500 299.474 291.802 294.237 L 292.105 289 287 289 L 281.895 289 282.198 294.250 M 162.500 300 L 158.500 300.716 162.750 300.858 C 165.088 300.936, 167 300.550, 167 300 C 167 299.450, 166.887 299.064, 166.750 299.142 C 166.613 299.220, 164.700 299.606, 162.500 300 M 404.223 328.557 C 399.984 331.526, 402.428 339, 407.638 339 C 410.233 339, 412.635 337.048, 413.461 334.267 C 413.945 332.638, 413.443 331.352, 411.608 329.517 C 408.685 326.594, 407.284 326.412, 404.223 328.557 M 125.999 337.661 C 126 345.546, 126.104 345.910, 129.077 348.411 L 132.153 351 172.077 351 L 212 351 212 360.500 L 212 370 206 370 C 199.479 370, 196 372.087, 196 376 C 196 377.100, 196.900 378.900, 198 380 C 199.939 381.939, 201.333 382, 243.845 382 C 285.051 382, 287.790 381.890, 289.345 380.171 C 291.741 377.524, 291.448 373.326, 288.750 371.639 C 287.512 370.865, 283.056 369.993, 278.846 369.700 C 271.796 369.211, 262.668 366.871, 238 359.233 C 233.325 357.786, 228.912 356.502, 228.194 356.381 C 226.818 356.149, 217.556 353.151, 215 352.111 C 214.175 351.775, 233.805 351.275, 258.621 351 L 303.743 350.500 303.705 339.500 C 303.683 332.785, 303.521 331.088, 303.291 335.145 C 302.957 341.018, 302.699 341.734, 301.070 341.308 C 300.055 341.043, 298.887 341.373, 298.474 342.043 C 297.992 342.823, 298.217 343.094, 299.102 342.799 C 300.715 342.262, 303.014 344.272, 302.968 346.179 C 302.949 346.992, 302.357 346.733, 301.429 345.505 C 300.219 343.905, 299.754 343.780, 299.077 344.875 C 298.394 345.980, 298.046 345.904, 297.249 344.480 C 296.686 343.474, 295.757 343.032, 295.083 343.449 C 294.256 343.960, 294.214 344.553, 294.943 345.431 C 295.515 346.120, 295.746 346.921, 295.457 347.210 C 295.167 347.499, 296.019 347.528, 297.348 347.274 C 298.678 347.020, 300.111 347.370, 300.533 348.053 C 301.234 349.187, 294.895 349.085, 280.805 347.734 C 279.872 347.645, 278.851 346.543, 278.536 345.286 C 277.829 342.470, 276 342.264, 276 345 C 276 346.100, 275.628 347, 275.173 347 C 274.718 347, 274.545 345.650, 274.787 344 C 275.126 341.687, 274.844 341, 273.554 341 C 272.635 341, 272.160 341.450, 272.500 342 C 272.840 342.550, 272.416 343, 271.559 343 C 270.702 343, 270 343.661, 270 344.469 C 270 345.363, 270.586 345.712, 271.500 345.362 C 272.597 344.941, 273 345.487, 273 347.393 L 273 350 242.750 349.985 C 225.128 349.976, 213.075 349.605, 213.878 349.096 C 214.636 348.616, 214.947 347.723, 214.569 347.112 C 214.191 346.500, 214.359 346, 214.941 346 C 215.523 346, 216 345.325, 216 344.500 C 216 343.675, 215.523 343, 214.941 343 C 214.359 343, 214.160 342.550, 214.500 342 C 214.851 341.433, 214.010 341, 212.559 341 C 211.152 341, 210 340.550, 210 340 C 210 339.450, 209.325 339, 208.500 339 C 206.372 339, 206.643 340.636, 209.050 342.322 C 211.074 343.740, 211.068 343.766, 208.538 344.401 C 204.330 345.457, 136.894 345.014, 134.844 343.916 C 131.216 341.975, 133.106 341, 140.500 341 C 144.625 341, 148 340.592, 148 340.094 C 148 339.595, 147.103 339.422, 146.008 339.708 C 144.912 339.995, 141.987 339.925, 139.508 339.553 C 135.888 339.011, 135 338.483, 135 336.873 C 135 335.771, 134.578 334.081, 134.063 333.118 C 133.186 331.479, 134.036 331.395, 147.313 331.802 C 155.116 332.041, 161.153 331.875, 160.730 331.432 C 160.306 330.989, 152.318 330.373, 142.978 330.063 L 125.997 329.500 125.999 337.661 M 164.500 331 C 164.889 331.629, 175.813 332, 193.965 332 C 222.320 332, 222.804 332.034, 222.290 334 C 221.854 335.665, 222.247 335.990, 224.633 335.942 C 226.210 335.911, 229.300 335.512, 231.500 335.057 C 235.327 334.266, 235.362 334.225, 232.309 334.115 C 230.554 334.052, 228.823 333.522, 228.462 332.938 C 228.027 332.234, 229.272 331.981, 232.153 332.188 C 235.647 332.439, 236.442 332.843, 236.206 334.250 C 235.846 336.395, 237.318 336.527, 239 334.500 C 239.685 333.675, 240.817 333, 241.515 333 C 242.214 333, 243.045 332.325, 243.362 331.500 C 243.867 330.182, 239.079 330, 203.910 330 C 177.479 330, 164.092 330.340, 164.500 331 M 245.344 331.477 C 244.525 332.354, 244.978 332.931, 247.122 333.740 C 248.705 334.337, 250 335.567, 250 336.472 C 250 337.377, 250.338 337.911, 250.750 337.657 C 251.162 337.404, 251.547 338.489, 251.605 340.068 C 251.663 341.647, 251.295 342.682, 250.788 342.369 C 250.281 342.056, 250.009 342.579, 250.183 343.532 C 250.401 344.725, 249.721 345.388, 248 345.661 C 246.625 345.879, 245.350 346.495, 245.167 347.029 C 244.983 347.563, 244.169 348, 243.358 348 C 242.546 348, 242.160 347.550, 242.500 347 C 242.840 346.450, 242.472 346, 241.681 346 C 240.891 346, 239.685 345.325, 239 344.500 C 237.544 342.746, 235.548 342.459, 236.595 344.155 C 237.038 344.871, 236.870 345.038, 236.152 344.594 C 235.312 344.075, 235.287 343.332, 236.062 341.884 C 236.649 340.787, 236.911 339.352, 236.644 338.695 C 236.377 338.038, 236.122 338.288, 236.079 339.250 C 236.036 340.212, 235.550 341, 235 341 C 234.450 341, 234 342.350, 234 344 C 234 346.797, 233.747 347.001, 230.250 347.015 C 228.188 347.024, 225.825 347.467, 225 348 C 224.002 348.645, 229.775 348.974, 242.250 348.985 C 254.094 348.994, 261 348.632, 261 348 C 261 347.450, 259.650 347, 258 347 C 255.159 347, 255 346.785, 255 342.937 C 255 339.667, 255.341 338.909, 256.750 339.052 C 257.712 339.150, 259.625 339.172, 261 339.100 C 262.950 338.998, 263.176 338.765, 262.029 338.039 C 260.336 336.969, 260.642 336.512, 263.675 335.581 C 265.400 335.051, 265.917 335.362, 266.175 337.090 C 266.488 339.188, 267.022 339.281, 280.966 339.674 C 289.482 339.914, 295.698 340.511, 296.077 341.125 C 296.471 341.762, 296.958 341.552, 297.329 340.584 C 297.664 339.713, 298.851 339, 299.969 339 C 301.667 339, 302 338.354, 302 335.059 C 302 332.891, 301.480 330.797, 300.845 330.405 C 300.180 329.993, 299.961 330.127, 300.328 330.722 C 301.025 331.849, 262.887 332.991, 254.951 332.080 L 250.500 331.569 255 330.935 L 259.500 330.300 253.628 330.150 C 248.512 330.019, 247.916 330.193, 249 331.500 C 250.549 333.367, 249.625 333.482, 247.793 331.650 C 246.761 330.618, 246.184 330.578, 245.344 331.477 M 267.762 330.707 C 269.006 330.946, 270.806 330.937, 271.762 330.687 C 272.718 330.437, 271.700 330.241, 269.500 330.252 C 267.300 330.263, 266.518 330.468, 267.762 330.707 M 290.768 330.725 C 292.565 330.947, 295.265 330.943, 296.768 330.715 C 298.271 330.486, 296.800 330.304, 293.500 330.310 C 290.200 330.315, 288.971 330.502, 290.768 330.725 M 216 339.571 C 216 340.502, 218.778 343, 219.812 343 C 220.337 343, 221.002 342.100, 221.290 341 C 221.724 339.339, 221.320 339, 218.906 339 C 217.308 339, 216 339.257, 216 339.571 M 266 342 C 266 342.550, 266.675 343, 267.500 343 C 268.325 343, 269 342.550, 269 342 C 269 341.450, 268.325 341, 267.500 341 C 266.675 341, 266 341.450, 266 342 M 209.500 346 C 209.160 346.550, 209.246 347.007, 209.691 347.015 C 210.136 347.024, 209.825 347.467, 209 348 C 207.951 348.678, 207.885 348.974, 208.781 348.985 C 209.486 348.993, 210.321 348.328, 210.636 347.506 C 210.952 346.684, 211.682 346.303, 212.259 346.660 C 212.872 347.039, 213.012 346.829, 212.595 346.155 C 211.718 344.735, 210.325 344.665, 209.500 346 M 139.294 348.203 C 139.957 348.625, 155.575 348.909, 174 348.835 C 192.425 348.761, 206.375 348.561, 205 348.391 C 199.230 347.677, 138.191 347.502, 139.294 348.203 M 218 348 C 218 348.550, 218.900 349, 220 349 C 221.100 349, 222 348.550, 222 348 C 222 347.450, 221.100 347, 220 347 C 218.900 347, 218 347.450, 218 348 M 382.493 367.989 C 382.840 368.550, 382.451 368.726, 381.594 368.398 C 380.553 367.998, 379.876 368.647, 379.415 370.483 C 378.006 376.096, 383.084 380.631, 387.895 378.056 C 392.992 375.328, 390.750 367, 384.918 367 C 383.172 367, 382.142 367.420, 382.493 367.989 M 222 371.722 C 231.966 372.092, 235.149 373.014, 230 374.039 L 226.500 374.737 230.114 374.868 C 232.101 374.941, 236.151 374.519, 239.114 373.931 C 242.076 373.342, 248.550 372.507, 253.500 372.073 C 260.310 371.477, 256.539 371.300, 238 371.346 C 224.525 371.380, 217.325 371.549, 222 371.722 M 274 372.745 C 274 373.339, 272.226 374.124, 270.058 374.490 C 266.513 375.089, 262.148 378, 264.794 378 C 265.366 378, 266.037 377.438, 266.286 376.750 C 266.643 375.765, 267.222 375.786, 269.014 376.849 C 271.017 378.036, 271.216 378.006, 270.676 376.599 C 270.246 375.478, 270.633 375, 271.972 375 C 273.980 375, 275.623 373.290, 274.600 372.267 C 274.270 371.937, 274 372.152, 274 372.745 M 215 376 C 217.521 377.972, 223.624 378.818, 222.527 377.044 C 222.202 376.518, 221.202 376.369, 220.304 376.714 C 219.150 377.156, 218.903 376.966, 219.461 376.063 C 220.053 375.106, 219.686 374.965, 218 375.500 C 216.467 375.987, 215.968 375.861, 216.434 375.107 C 216.860 374.418, 216.246 374.008, 214.809 374.022 L 212.500 374.044 215 376 M 227 376.871 C 227 377.350, 232.391 377.709, 238.979 377.667 C 245.567 377.626, 250.405 377.241, 249.729 376.811 C 248.036 375.736, 227 375.791, 227 376.871 M 256.250 377.689 C 257.212 377.941, 258.788 377.941, 259.750 377.689 C 260.712 377.438, 259.925 377.232, 258 377.232 C 256.075 377.232, 255.287 377.438, 256.250 377.689 M 233.264 379.718 C 234.784 379.947, 237.034 379.941, 238.264 379.704 C 239.494 379.467, 238.250 379.279, 235.500 379.286 C 232.750 379.294, 231.744 379.488, 233.264 379.718" stroke="none" fill="#fefefd" fill-rule="evenodd"/><path d="M 130.110 187.388 C 124.964 190.256, 125.073 188.680, 125.035 260.745 L 125 327.989 214.750 328.245 L 304.500 328.500 305 339.790 C 305.378 348.330, 305.864 351.303, 306.995 352 C 308.274 352.788, 308.202 353.132, 306.495 354.380 C 304.641 355.736, 304.500 357.006, 304.500 372.369 C 304.500 384.600, 304.838 389.238, 305.800 390.200 C 306.837 391.237, 319.095 391.500, 366.500 391.500 C 413.905 391.500, 426.163 391.237, 427.200 390.200 C 428.162 389.238, 428.500 384.600, 428.500 372.369 C 428.500 357.224, 428.339 355.721, 426.581 354.435 C 424.705 353.064, 424.704 352.984, 426.530 350.967 C 428.137 349.192, 428.447 346.845, 428.749 334.201 C 429.009 323.328, 428.754 318.849, 427.771 317 L 426.443 314.500 396.971 313.977 L 367.500 313.454 396.628 313.227 C 422.325 313.027, 425.917 312.805, 427.128 311.346 C 429.089 308.983, 429.099 279.029, 427.139 276.668 C 425.939 275.222, 422.035 274.997, 394.139 274.764 L 362.500 274.500 362 232.777 L 361.500 191.054 359.222 188.777 L 356.945 186.500 244.722 186.278 C 152.818 186.097, 132.067 186.298, 130.110 187.388 M 134 257.500 L 134 320 218.750 319.994 L 303.500 319.987 305.203 316.994 L 306.907 314 330.703 313.786 L 354.500 313.571 330.798 313.036 C 313.276 312.640, 306.757 312.161, 305.798 311.200 C 303.778 309.177, 303.556 280.327, 305.537 277.303 C 307.001 275.069, 307.356 275.033, 330.261 274.768 L 353.500 274.500 353.658 240.500 C 353.745 221.800, 353.577 203.912, 353.284 200.750 L 352.752 195 243.376 195 L 134 195 134 257.500 M 295.739 224.959 C 291.222 225.835, 290.554 226.394, 291.396 228.590 C 291.920 229.954, 292.883 230.151, 296.571 229.645 C 301.826 228.925, 301.987 228.374, 293.840 239 C 273.330 265.752, 272.690 266.463, 268.481 267.153 C 266.292 267.512, 263.600 268.073, 262.500 268.399 C 261.141 268.801, 255.369 266.287, 244.500 260.559 C 230.822 253.352, 228.454 251.759, 228.186 249.586 C 227.762 246.159, 223.510 243, 219.320 243 C 214.780 243, 211.003 246.721, 210.991 251.205 C 210.982 254.852, 211.338 254.443, 182.580 283.776 C 167.765 298.887, 166.741 300.170, 168.270 301.699 C 169.799 303.227, 171.465 301.760, 191.560 281.192 C 209.998 262.319, 213.474 259.184, 215.036 260.019 C 217.993 261.602, 222.538 261.151, 225.267 259.005 L 227.803 257.009 240.652 263.735 C 247.718 267.434, 254.850 271.145, 256.500 271.980 C 258.653 273.071, 259.593 274.347, 259.830 276.500 C 260.241 280.233, 263.368 283.702, 267.053 284.512 C 270.398 285.246, 275.442 282.911, 277.066 279.876 C 278.077 277.987, 277.998 273.248, 276.910 270.443 C 276.685 269.862, 282.350 261.778, 289.500 252.478 C 296.650 243.179, 303.016 234.892, 303.648 234.065 C 304.586 232.834, 304.956 233.374, 305.679 237.030 C 306.245 239.892, 307.091 241.500, 308.032 241.500 C 309.200 241.500, 309.472 240.022, 309.365 234.270 C 309.290 230.293, 308.967 226.356, 308.646 225.520 C 308.013 223.871, 302.570 223.635, 295.739 224.959 M 215.939 248.061 C 211.205 252.795, 216.978 260.210, 222.553 256.557 C 225.766 254.452, 225.884 249.733, 222.777 247.557 C 219.825 245.489, 218.407 245.593, 215.939 248.061 M 264.333 272.615 C 262.798 274.957, 262.773 275.506, 264.091 277.865 C 265.090 279.655, 266.542 280.597, 268.616 280.801 C 272.209 281.155, 274.250 279.172, 274.250 275.325 C 274.250 269.977, 267.305 268.079, 264.333 272.615 M 380.073 289.635 C 377.596 292.783, 377.468 294.796, 379.557 297.777 C 381.126 300.017, 386.203 300.835, 388.600 299.235 C 390.890 297.706, 392.022 294.188, 391.048 291.626 C 389.133 286.590, 383.300 285.532, 380.073 289.635 M 404.198 288.750 C 401.042 291.479, 400.680 294.324, 403.098 297.398 C 404.743 299.489, 405.941 300.040, 408.334 299.805 C 414.375 299.212, 415.949 290.665, 410.477 288.171 C 407.102 286.634, 406.591 286.681, 404.198 288.750 M 405.315 327.007 C 402.866 327.994, 401 330.914, 401 333.760 C 401 336.270, 405.073 340, 407.814 340 C 410.845 340, 414.003 336.545, 413.985 333.250 C 413.966 329.941, 413.201 328.668, 410.316 327.150 C 407.828 325.840, 408.185 325.851, 405.315 327.007 M 381.313 327.786 C 379.095 329.196, 378.077 333.520, 379.355 336.099 C 380.916 339.247, 387.729 340.091, 389.710 337.382 C 391.562 334.849, 391.299 330.580, 389.171 328.655 C 387.260 326.926, 383.346 326.493, 381.313 327.786 M 239.455 335.455 C 238.105 336.805, 237 338.544, 237 339.320 C 237 341.881, 241.052 346, 243.573 346 C 246.718 346, 250 342.681, 250 339.500 C 250 336.477, 246.766 333, 243.955 333 C 242.830 333, 240.805 334.105, 239.455 335.455 M 380.116 368.580 C 377.468 371.946, 377.434 374.434, 380 377 C 385.690 382.690, 395.016 375.534, 390.257 369.130 C 387.442 365.342, 382.858 365.094, 380.116 368.580 M 403.550 368.359 C 400.691 371.218, 400.498 372.178, 402.150 375.316 C 404.381 379.554, 408.706 380.294, 412 377 C 415.706 373.294, 414.012 367.715, 408.800 366.459 C 406.707 365.955, 405.528 366.381, 403.550 368.359" stroke="none" fill="#324759" fill-rule="evenodd"/><path d="M 134 257.500 L 134 320 218.750 319.994 L 303.500 319.987 305.203 316.994 L 306.907 314 330.703 313.786 L 354.500 313.571 330.798 313.036 C 313.276 312.640, 306.757 312.161, 305.798 311.200 C 303.778 309.177, 303.556 280.327, 305.537 277.303 C 307.001 275.069, 307.356 275.033, 330.261 274.768 L 353.500 274.500 353.658 240.500 C 353.745 221.800, 353.577 203.912, 353.284 200.750 L 352.752 195 243.376 195 L 134 195 134 257.500 M 168.915 209.500 C 168.536 212.237, 168.127 212.527, 164.250 212.807 C 158.585 213.217, 158.788 215, 164.500 215 L 169 215 169 220 L 169 225 164 225 C 157.638 225, 157.434 226.790, 163.750 227.195 L 168.500 227.500 168.500 232.500 L 168.500 237.500 163.500 238.060 L 158.500 238.620 163.500 239.060 L 168.500 239.500 168.500 244.500 L 168.500 249.500 163.500 250.052 C 158.230 250.634, 158.981 251.715, 165 252.211 C 168.419 252.493, 168.507 252.610, 168.805 257.250 L 169.110 262 165.637 262 C 159.489 262, 157.945 263.445, 163.500 264 L 168.500 264.500 168.500 269.500 L 168.500 274.500 163.725 274.806 C 157.784 275.186, 158.473 277, 164.559 277 L 169 277 169 282 L 169 287 163.800 287 C 157.757 287, 158.300 288.692, 164.500 289.183 C 168.249 289.480, 168.527 289.720, 168.923 293 L 169.347 296.500 169.923 293 C 170.384 290.204, 171.003 289.440, 173 289.201 C 177.867 288.619, 178.553 287.644, 174.500 287.068 C 170.530 286.504, 170.498 286.465, 170.195 281.750 L 169.890 277 175.445 277 L 181 277 181 280.559 C 181 282.677, 181.405 283.868, 182 283.500 C 182.550 283.160, 183 281.559, 183 279.941 C 183 277.353, 183.353 277, 185.941 277 C 190.059 277, 190.742 275.197, 186.769 274.815 C 183.577 274.507, 183.493 274.376, 183.198 269.250 L 182.895 264 187.929 264 C 192.462 264, 193.024 264.248, 193.589 266.498 C 193.934 267.872, 193.916 269.784, 193.549 270.748 C 193.109 271.901, 193.217 272.158, 193.864 271.500 C 194.404 270.950, 194.993 269.155, 195.173 267.512 C 195.454 264.941, 196.002 264.443, 199.099 263.944 C 202.510 263.394, 201.776 264.301, 185.016 281.343 C 168.640 297.994, 167.009 299.374, 162.918 300.035 L 158.500 300.750 163.191 300.875 C 165.771 300.944, 168.161 301.451, 168.502 302.003 C 168.916 302.673, 169.743 302.673, 170.995 302.003 C 172.025 301.451, 174.698 301, 176.934 301 C 180.914 301, 181 301.074, 181 304.500 C 181 308.911, 182.766 309.113, 183.187 304.750 C 183.494 301.558, 183.590 301.500, 188.500 301.500 C 193.438 301.500, 193.507 301.544, 194.077 305 L 194.653 308.500 195.077 305 C 195.497 301.523, 195.533 301.500, 200.500 301.500 C 205.450 301.500, 205.505 301.535, 206.014 305 C 206.415 307.731, 206.689 308.098, 207.264 306.668 C 207.669 305.661, 208 303.973, 208 302.918 C 208 301.283, 208.738 301, 213 301 L 218 301 218 304.500 C 218 308.911, 219.766 309.113, 220.187 304.750 C 220.483 301.680, 220.743 301.483, 224.901 301.185 C 229.663 300.844, 230.868 301.778, 231.116 306 C 231.228 307.905, 231.410 307.667, 231.882 305 C 232.491 301.549, 232.570 301.500, 237.500 301.500 C 242.437 301.500, 242.507 301.544, 243.079 305 C 243.651 308.457, 244.510 307.849, 245.200 303.500 C 245.458 301.879, 246.417 301.442, 250.259 301.195 C 254.926 300.895, 255 300.937, 255 303.886 C 255 308.044, 256.800 308.771, 257.185 304.769 C 257.495 301.555, 257.584 301.500, 262.500 301.500 C 267.438 301.500, 267.507 301.544, 268.077 305 L 268.653 308.500 269.077 305 C 269.495 301.545, 269.568 301.496, 274.750 301.198 L 280 300.895 280 304.448 C 280 306.401, 280.450 308, 281 308 C 281.550 308, 282 306.425, 282 304.500 L 282 301 287 301 C 291.867 301, 292 301.078, 292 303.941 C 292 308.059, 293.803 308.742, 294.185 304.769 C 294.486 301.643, 294.718 301.476, 299.500 300.940 L 304.500 300.380 299.500 299.940 L 294.500 299.500 294.198 294.250 L 293.895 289 298.389 289 C 300.860 289, 303.160 288.550, 303.500 288 C 303.881 287.384, 302.177 287, 299.059 287 L 294 287 294 282 L 294 277 299.378 277 C 304.452 277, 307.322 275.612, 306.917 273.355 C 306.832 272.885, 306.816 270.587, 306.882 268.250 L 307 264 312 264 L 317 264 317 269 C 317 271.750, 317.450 274, 318 274 C 318.550 274, 319 271.750, 319 269 L 319 264 323.559 264 C 326.344 264, 327.878 263.611, 327.500 263 C 327.160 262.450, 325.109 262, 322.941 262 L 319 262 319 257 L 319 252 323.500 252 C 325.975 252, 328 251.550, 328 251 C 328 250.450, 325.951 250, 323.448 250 L 318.895 250 319.198 244.750 L 319.500 239.500 324 238.935 L 328.500 238.371 324 237.935 L 319.500 237.500 319.198 232.250 L 318.895 227 323.448 227 C 325.951 227, 328 226.550, 328 226 C 328 225.450, 325.975 225, 323.500 225 L 319 225 319 220 L 319 215 323.500 215 C 325.975 215, 328 214.550, 328 214 C 328 213.450, 325.975 213, 323.500 213 C 319.167 213, 319 212.889, 319 210 C 319 208.350, 318.550 207, 318 207 C 317.450 207, 317 208.350, 317 210 C 317 212.933, 316.889 213, 312 213 C 307.366 213, 307 212.822, 307 210.559 C 307 207.092, 305.200 206.411, 304.818 209.733 C 304.518 212.344, 304.219 212.500, 299.500 212.500 C 294.789 212.500, 294.482 212.341, 294.184 209.750 C 293.756 206.038, 292 206.239, 292 210 C 292 212.933, 291.889 213, 287 213 C 282.111 213, 282 212.933, 282 210 C 282 208.350, 281.550 207, 281 207 C 280.450 207, 280 208.374, 280 210.052 L 280 213.105 274.756 212.802 C 269.817 212.518, 269.477 212.325, 268.920 209.500 L 268.329 206.500 267.915 209.500 C 267.520 212.352, 267.241 212.515, 262.250 212.802 L 257 213.105 257 210.052 C 257 208.374, 256.550 207, 256 207 C 255.450 207, 255 208.350, 255 210 C 255 212.933, 254.889 213, 250 213 C 244.970 213, 244.551 212.647, 244.948 208.750 C 245.046 207.787, 244.647 207, 244.063 207 C 243.478 207, 243 208.374, 243 210.052 L 243 213.105 237.756 212.802 C 232.817 212.518, 232.477 212.325, 231.920 209.500 L 231.329 206.500 230.915 209.500 C 230.520 212.352, 230.241 212.515, 225.250 212.802 L 220 213.105 220 210.052 C 220 208.374, 219.550 207, 219 207 C 218.450 207, 218 208.350, 218 210 C 218 212.933, 217.889 213, 213 213 C 208.111 213, 208 212.933, 208 210 C 208 208.350, 207.550 207, 207 207 C 206.450 207, 206 208.374, 206 210.052 L 206 213.105 200.756 212.802 C 195.829 212.518, 195.472 212.318, 194.874 209.500 C 194.523 207.850, 194.131 206.950, 194.003 207.500 C 193.874 208.050, 193.665 208.950, 193.537 209.500 C 193.409 210.050, 193.236 211.063, 193.152 211.750 C 193.053 212.563, 191.252 213, 188 213 C 183.111 213, 183 212.933, 183 210 C 183 208.350, 182.550 207, 182 207 C 181.450 207, 181 208.374, 181 210.052 L 181 213.105 175.756 212.802 C 170.817 212.518, 170.477 212.325, 169.920 209.500 L 169.329 206.500 168.915 209.500 M 170.195 219.750 L 170.500 224.500 175.750 224.802 L 181 225.105 181 220.052 L 181 215 175.445 215 L 169.890 215 170.195 219.750 M 183 220 L 183 225 187.912 225 L 192.824 225 193.494 221.037 C 193.862 218.857, 193.875 216.607, 193.523 216.037 C 193.170 215.467, 190.659 215, 187.941 215 L 183 215 183 220 M 195 220 L 195 225 200.500 225 L 206 225 206 220 L 206 215 200.500 215 L 195 215 195 220 M 208 220 L 208 225 213 225 L 218 225 218 220 L 218 215 213 215 L 208 215 208 220 M 220 220 L 220 225.105 225.250 224.802 L 230.500 224.500 230.500 220 L 230.500 215.500 225.250 215.198 L 220 214.895 220 220 M 232.195 219.750 L 232.500 224.500 237.750 224.802 L 243 225.105 243 220.052 L 243 215 237.445 215 L 231.890 215 232.195 219.750 M 244.758 216.250 C 244.507 216.938, 244.508 219.188, 244.760 221.250 L 245.219 225 250.109 225 L 255 225 255 220 L 255 215 250.107 215 C 247.103 215, 245.038 215.482, 244.758 216.250 M 257 220 L 257 225 262.500 225 L 268 225 268 220 L 268 215 262.500 215 L 257 215 257 220 M 269.398 216.405 C 269.102 217.177, 269.003 219.315, 269.180 221.155 C 269.494 224.438, 269.597 224.506, 274.750 224.802 L 280 225.105 280 220.052 L 280 215 274.969 215 C 271.570 215, 269.762 215.456, 269.398 216.405 M 282 219.903 L 282 224.807 287.250 225.167 C 290.137 225.364, 295.313 225.108, 298.750 224.598 L 305 223.669 305 219.335 L 305 215 299.500 215 L 294 215 294 219.441 C 294 221.884, 293.550 224.160, 293 224.500 C 292.384 224.881, 292 223.177, 292 220.059 L 292 215 287 215 L 282 215 282 219.903 M 306.841 215.750 C 306.193 218.813, 306.726 223.678, 307.803 224.525 C 308.645 225.188, 309.176 228.371, 309.303 233.525 C 309.462 239.960, 309.216 241.500, 308.032 241.500 C 307.096 241.500, 306.250 239.914, 305.699 237.132 C 305.224 234.730, 304.493 233.155, 304.073 233.632 C 300.637 237.545, 291.895 249.183, 292.823 248.609 C 293.470 248.209, 294 248.359, 294 248.941 C 294 249.558, 296.296 250, 299.500 250 L 305 250 305 245.441 C 305 242.537, 305.378 241.116, 306.041 241.525 C 306.613 241.879, 306.808 243.030, 306.473 244.084 C 306.139 245.138, 306.151 246.900, 306.500 248 C 307.023 249.648, 308.013 250, 312.120 250 L 317.105 250 316.802 244.756 C 316.518 239.829, 316.318 239.472, 313.500 238.874 L 310.500 238.237 313.750 238.118 L 317 238 317 232.500 L 317 227 313.500 227 C 311.575 227, 310 226.550, 310 226 C 310 225.450, 311.575 225, 313.500 225 L 317 225 317 220 L 317 215 312 215 C 309.250 215, 306.929 215.338, 306.841 215.750 M 170.402 228.395 C 170.108 229.162, 170.009 231.524, 170.183 233.645 L 170.500 237.500 175.750 237.802 L 181 238.105 181 232.552 L 181 227 175.969 227 C 172.587 227, 170.762 227.457, 170.402 228.395 M 183.198 232.250 L 183.500 237.500 188.250 237.805 L 193 238.110 193 232.555 L 193 227 187.948 227 L 182.895 227 183.198 232.250 M 195.423 228.340 C 195.117 229.137, 195.009 231.524, 195.183 233.645 L 195.500 237.500 200.500 237.500 L 205.500 237.500 205.500 232.500 L 205.500 227.500 200.740 227.195 C 197.292 226.974, 195.826 227.289, 195.423 228.340 M 208 232.500 L 208 238 213 238 L 218 238 218 232.500 L 218 227 213 227 L 208 227 208 232.500 M 220 232.500 L 220 238.105 225.250 237.802 L 230.500 237.500 230.500 232.500 L 230.500 227.500 225.250 227.198 L 220 226.895 220 232.500 M 232.402 228.395 C 232.108 229.162, 232.009 231.524, 232.183 233.645 L 232.500 237.500 237.500 237.500 L 242.500 237.500 242.802 232.250 L 243.105 227 238.021 227 C 234.595 227, 232.763 227.455, 232.402 228.395 M 245.198 232.250 L 245.500 237.500 250.250 237.805 L 255 238.110 255 232.555 L 255 227 249.948 227 L 244.895 227 245.198 232.250 M 257.198 232.250 L 257.500 237.500 262.500 237.500 L 267.500 237.500 267.802 232.250 L 268.105 227 262.500 227 L 256.895 227 257.198 232.250 M 269.402 228.395 C 269.108 229.162, 269.009 231.524, 269.183 233.645 L 269.500 237.500 274.500 237.500 L 279.500 237.500 279.802 232.250 L 280.105 227 275.021 227 C 271.595 227, 269.763 227.455, 269.402 228.395 M 282.198 232.250 L 282.500 237.500 287.250 237.805 L 292 238.110 292 234.137 C 292 227.828, 291.343 227, 286.341 227 L 281.895 227 282.198 232.250 M 296.250 229.706 C 294.344 230.073, 294.001 230.777, 294.005 234.320 L 294.010 238.500 296.518 235.500 C 301.809 229.173, 301.784 228.640, 296.250 229.706 M 302.573 237.959 C 300.742 238.616, 300.737 238.685, 302.466 239.349 C 304.453 240.111, 305.409 239.650, 304.854 238.197 C 304.659 237.686, 303.633 237.579, 302.573 237.959 M 170.423 240.340 C 170.117 241.137, 170.009 243.524, 170.183 245.645 L 170.500 249.500 175.804 249.804 L 181.108 250.108 180.804 244.804 L 180.500 239.500 175.740 239.195 C 172.292 238.974, 170.826 239.289, 170.423 240.340 M 183.713 239.621 C 183.321 240.013, 183 242.532, 183 245.219 L 183 250.105 188.250 249.802 L 193.500 249.500 193.462 244.500 L 193.423 239.500 188.924 239.204 C 186.450 239.041, 184.105 239.229, 183.713 239.621 M 195.713 239.621 C 195.321 240.013, 195 242.532, 195 245.219 L 195 250.105 200.250 249.802 L 205.500 249.500 205.500 244.500 L 205.500 239.500 200.963 239.204 C 198.467 239.041, 196.105 239.229, 195.713 239.621 M 207.903 240.250 C 207.588 244.309, 208.352 249.604, 209.344 250.249 C 210.178 250.791, 210.193 251.209, 209.399 251.750 C 208.793 252.162, 208.065 253.754, 207.781 255.286 C 207.286 257.951, 207.345 257.998, 209.132 256.381 C 210.256 255.363, 211 253.340, 211 251.300 C 211 246.718, 214.727 243, 219.320 243 C 223.510 243, 227.762 246.159, 228.186 249.586 C 228.454 251.759, 230.822 253.352, 244.500 260.559 C 255.369 266.287, 261.141 268.801, 262.500 268.399 C 263.600 268.073, 266.281 267.512, 268.459 267.153 C 272.110 266.551, 273.242 265.449, 283.047 252.943 L 293.677 239.385 288.088 239.443 L 282.500 239.500 282.189 244.403 C 282.018 247.100, 282.324 249.582, 282.870 249.919 C 283.462 250.285, 283.092 251.534, 281.953 253.016 C 280.359 255.090, 280.041 255.203, 280.022 253.698 C 280.003 252.154, 279.247 251.939, 274.750 252.198 L 269.500 252.500 269.185 256.901 C 268.851 261.567, 269.947 263.088, 273.191 262.463 C 274.216 262.266, 274.790 262.531, 274.468 263.052 C 274.146 263.574, 273.099 264, 272.141 264 C 271.183 264, 269.911 264.489, 269.313 265.087 C 268.530 265.870, 268.038 265.870, 267.554 265.087 C 266.737 263.765, 258.776 263.635, 257.450 264.922 C 256.866 265.489, 255.151 265.098, 253 263.907 C 249.926 262.205, 249.804 262.001, 252 262.235 C 254.351 262.484, 254.518 262.186, 254.802 257.250 L 255.105 252 250.052 252 L 245 252 245 256.059 C 245 258.510, 244.604 259.873, 244 259.500 C 243.450 259.160, 243 257.304, 243 255.376 L 243 251.870 236.558 252.160 C 229.809 252.463, 227.834 251.766, 229.817 249.783 C 231.073 248.527, 231.406 243.221, 230.393 240.582 C 229.506 238.271, 221.458 238.402, 220.050 240.750 C 219.050 242.417, 218.950 242.417, 217.950 240.750 C 216.680 238.632, 208.062 238.203, 207.903 240.250 M 233.185 239.878 C 232.334 240.409, 231.981 242.251, 232.185 245.099 L 232.500 249.500 237.804 249.804 L 243.108 250.108 242.804 244.804 L 242.500 239.500 238.500 239.279 C 236.300 239.158, 233.908 239.428, 233.185 239.878 M 245.667 239.667 C 245.300 240.033, 245 242.508, 245 245.167 L 245 250 250 250 L 255 250 255 244.500 L 255 239 250.667 239 C 248.283 239, 246.033 239.300, 245.667 239.667 M 257.402 240.395 C 257.108 241.162, 257.009 243.524, 257.183 245.645 L 257.500 249.500 262.750 249.802 L 268 250.105 268 245.159 C 268 239.696, 267.253 239, 261.387 239 C 259.359 239, 257.717 239.575, 257.402 240.395 M 270.185 239.838 C 269.338 240.392, 268.982 242.264, 269.185 245.099 L 269.500 249.500 274.804 249.804 L 280.108 250.108 279.804 244.804 L 279.500 239.500 275.500 239.239 C 273.300 239.096, 270.908 239.365, 270.185 239.838 M 215.939 248.061 C 211.205 252.795, 216.978 260.210, 222.553 256.557 C 225.766 254.452, 225.884 249.733, 222.777 247.557 C 219.825 245.489, 218.407 245.593, 215.939 248.061 M 216.629 249.481 C 215.287 250.497, 214.936 251.608, 215.388 253.408 C 215.896 255.435, 216.573 255.878, 218.902 255.709 C 221.112 255.549, 221.703 255.069, 221.433 253.658 C 221.188 252.380, 221.526 251.988, 222.540 252.377 C 223.496 252.744, 224 252.298, 224 251.085 C 224 250.010, 223.056 248.980, 221.750 248.630 C 218.793 247.838, 218.799 247.837, 216.629 249.481 M 283.763 259.850 C 278.355 266.890, 276.449 270.099, 277.083 271.100 C 278.450 273.259, 278.162 278.324, 276.540 280.640 C 275.737 281.786, 273.717 283.289, 272.053 283.978 C 267.891 285.702, 269.156 287, 274.998 287 L 279.877 287 279.833 276.405 C 279.807 269.945, 280.221 265.379, 280.895 264.705 C 281.702 263.898, 282 265.138, 282 269.300 L 282 275 287 275 L 292 275 292 269.500 L 292 264 286.941 264 C 283.823 264, 282.119 263.616, 282.500 263 C 282.840 262.450, 285.140 262, 287.611 262 L 292.105 262 291.888 256 C 291.769 252.700, 291.595 250, 291.500 250 C 291.406 250, 287.924 254.433, 283.763 259.850 M 170.667 252.667 C 169.600 253.733, 169.898 261.799, 171.017 262.172 C 171.577 262.359, 174.052 262.351, 176.517 262.155 L 181 261.799 181 256.899 L 181 252 176.167 252 C 173.508 252, 171.033 252.300, 170.667 252.667 M 183.196 257.180 L 183.500 262.469 188 262.144 C 190.475 261.965, 192.606 261.715, 192.736 261.589 C 192.866 261.464, 193.091 259.367, 193.236 256.930 L 193.500 252.500 188.196 252.196 L 182.892 251.892 183.196 257.180 M 195 257 C 195 262.314, 195.215 262.494, 201 262.014 C 204.750 261.702, 206 260.168, 206 255.878 L 206 252 200.500 252 L 195 252 195 257 M 257 256.948 L 257 262 261.500 262 C 263.975 262, 266.337 262, 266.750 262 C 267.163 262, 267.500 259.863, 267.500 257.250 L 267.500 252.500 262.250 252.198 L 257 251.895 257 256.948 M 294 257 L 294 262 299.500 262 L 305 262 305 257 L 305 252 299.500 252 L 294 252 294 257 M 306.435 255.492 C 305.499 260.487, 306.321 261.725, 310.864 262.158 C 316.614 262.707, 317 262.377, 317 256.917 L 317 252 312.045 252 C 307.177 252, 307.079 252.061, 306.435 255.492 M 225.997 258.504 C 225.310 259.331, 223.343 260.429, 221.624 260.943 C 218.961 261.741, 219.386 261.851, 224.500 261.689 C 229.200 261.541, 230.430 261.181, 230.176 260.028 C 229.920 258.866, 230.252 258.918, 231.755 260.278 C 232.801 261.225, 234.297 261.986, 235.079 261.969 C 236.401 261.940, 229.253 257.016, 227.872 257.005 C 227.527 257.002, 226.683 257.677, 225.997 258.504 M 200.148 272.352 C 192.916 279.598, 187 285.858, 187 286.263 C 187 286.669, 188.302 287, 189.893 287 C 192.998 287, 194.441 284.966, 193.482 281.943 C 193.172 280.967, 193.387 279.879, 193.959 279.525 C 194.615 279.120, 195 280.384, 195 282.941 L 195 287 200.500 287 L 206 287 206 282 L 206 277 202.250 276.882 C 200.188 276.816, 198.050 276.849, 197.500 276.953 C 196.833 277.080, 196.833 276.809, 197.500 276.143 C 198.050 275.593, 200.075 274.998, 202 274.821 C 205.204 274.527, 205.505 274.224, 205.559 271.241 C 205.591 269.449, 206.153 267.447, 206.809 266.791 C 207.730 265.870, 208 266.663, 208 270.300 L 208 275 213 275 L 218 275 218 269.500 L 218 264 213.800 264 C 208.823 264, 209.739 262.305, 214.978 261.821 L 218.455 261.500 215.875 260.339 C 213.404 259.226, 212.742 259.732, 200.148 272.352 M 236 263.937 C 232.542 264.493, 232.500 264.560, 232.500 269.500 L 232.500 274.500 237.500 274.500 L 242.500 274.500 243.059 270 C 243.435 266.980, 243.862 266.026, 244.359 267.101 C 244.766 267.981, 245.024 269.106, 244.931 269.601 C 244.839 270.095, 244.816 271.512, 244.882 272.750 C 244.988 274.768, 245.517 275, 250 275 C 253.790 275, 255 274.635, 255 273.492 C 255 272.233, 255.332 272.190, 257 273.232 C 259.083 274.533, 259.738 277, 258 277 C 257.450 277, 257 279.250, 257 282 L 257 287 262.500 287 C 268.184 287, 269.733 285.613, 265.750 284.090 C 262.483 282.841, 260.215 279.931, 259.834 276.500 C 259.533 273.800, 258.501 272.994, 249.500 268.437 C 241.305 264.287, 238.868 263.475, 236 263.937 M 170.402 265.395 C 170.108 266.162, 170.009 268.524, 170.183 270.645 L 170.500 274.500 175.750 274.802 L 181 275.105 181 269.552 L 181 264 175.969 264 C 172.587 264, 170.762 264.457, 170.402 265.395 M 220 269.500 L 220 275.105 225.250 274.802 L 230.500 274.500 230.500 269.500 L 230.500 264.500 225.250 264.198 L 220 263.895 220 269.500 M 294.423 265.340 C 294.117 266.137, 294.009 268.524, 294.183 270.645 L 294.500 274.500 299.500 274.500 L 304.500 274.500 304.500 269.500 L 304.500 264.500 299.740 264.195 C 296.292 263.974, 294.826 264.289, 294.423 265.340 M 264.333 272.615 C 262.798 274.957, 262.773 275.506, 264.091 277.865 C 265.090 279.655, 266.542 280.597, 268.616 280.801 C 272.209 281.155, 274.250 279.172, 274.250 275.325 C 274.250 269.977, 267.305 268.079, 264.333 272.615 M 266.750 273.217 C 264.794 275.665, 264.518 277, 265.969 277 C 266.501 277, 266.678 277.675, 266.362 278.500 C 266.045 279.325, 266.284 280, 266.893 280 C 267.502 280, 268 279.495, 268 278.878 C 268 278.116, 268.496 278.166, 269.542 279.035 C 270.638 279.945, 271.395 280.005, 272.155 279.245 C 273.508 277.892, 272.265 275.725, 270.681 276.676 C 270.008 277.079, 270.091 276.656, 270.872 275.692 C 271.973 274.335, 271.998 273.703, 271 272.500 C 269.360 270.524, 268.830 270.613, 266.750 273.217 M 220.550 276.783 C 220.248 277.086, 220 279.532, 220 282.219 L 220 287.105 225.250 286.802 L 230.500 286.500 230.691 282.196 C 230.807 279.599, 230.410 277.737, 229.691 277.502 C 227.351 276.735, 221.090 276.243, 220.550 276.783 M 233.017 276.828 C 232.458 277.014, 232 279.379, 232 282.083 L 232 287 237.500 287 L 243 287 243 282.101 L 243 277.201 238.517 276.845 C 236.052 276.649, 233.577 276.641, 233.017 276.828 M 283.673 276.823 C 282.389 277.072, 282 278.252, 282 281.907 C 282 284.525, 282.193 286.860, 282.429 287.096 C 282.666 287.332, 284.938 287.360, 287.478 287.158 L 292.097 286.791 291.799 281.737 C 291.510 276.848, 291.400 276.680, 288.423 276.592 C 286.730 276.541, 284.593 276.645, 283.673 276.823 M 207.843 280.250 C 207.139 286.324, 207.663 287, 213.073 287 L 218 287 218 282 L 218 277 213.109 277 C 208.336 277, 208.210 277.078, 207.843 280.250 M 244.834 280.938 C 244.294 286.606, 244.635 287, 250.083 287 L 255 287 255 282 L 255 277 250.105 277 L 245.210 277 244.834 280.938 M 183.431 289.267 C 182.293 290.495, 179.754 293.300, 177.790 295.500 L 174.219 299.500 177.359 299.500 C 180.221 299.500, 180.529 299.189, 180.821 296 C 181.304 290.745, 183 289.811, 183 294.800 L 183 299 187.933 299 C 193.359 299, 194.221 298.015, 193.616 292.500 C 193.316 289.759, 192.928 289.473, 189.121 289.191 C 186.829 289.022, 185.216 288.459, 185.536 287.941 C 186.522 286.346, 185.600 286.927, 183.431 289.267 M 380.405 289.250 C 378.515 291.482, 378.516 291.487, 380.500 289.841 C 381.600 288.929, 383.625 287.978, 385 287.727 L 387.500 287.272 384.905 287.136 C 383.321 287.053, 381.568 287.877, 380.405 289.250 M 404.198 288.750 C 401.042 291.479, 400.680 294.324, 403.098 297.398 C 404.743 299.489, 405.941 300.040, 408.334 299.805 C 414.375 299.212, 415.949 290.665, 410.477 288.171 C 407.102 286.634, 406.591 286.681, 404.198 288.750 M 195.667 289.667 C 194.751 290.583, 194.822 298.772, 195.751 299.346 C 196.164 299.602, 198.639 299.570, 201.251 299.275 L 206 298.740 206 293.870 L 206 289 201.167 289 C 198.508 289, 196.033 289.300, 195.667 289.667 M 207.904 289.429 C 207.668 289.666, 207.636 291.890, 207.833 294.373 C 208.220 299.233, 209.325 299.944, 215.250 299.144 C 217.824 298.797, 218 298.461, 218 293.887 L 218 289 213.167 289 C 210.508 289, 208.140 289.193, 207.904 289.429 M 220 293.836 C 220 298.688, 220.063 298.789, 223.486 299.431 C 228.961 300.458, 231.171 298.724, 230.804 293.686 L 230.500 289.500 225.250 289.198 L 220 288.895 220 293.836 M 232.667 289.667 C 232.300 290.033, 232 292.231, 232 294.550 C 232 299.322, 233.523 300.276, 239.573 299.295 C 242.930 298.750, 243 298.639, 243 293.869 L 243 289 238.167 289 C 235.508 289, 233.033 289.300, 232.667 289.667 M 245 293.921 C 245 298.566, 245.166 298.878, 247.978 299.495 C 253.453 300.698, 255 299.472, 255 293.933 L 255 289 250 289 L 245 289 245 293.921 M 257 293.892 C 257 299.232, 257.984 299.988, 264.500 299.654 C 267.391 299.506, 267.511 299.310, 267.802 294.250 L 268.105 289 262.552 289 L 257 289 257 293.892 M 269.667 289.667 C 268.748 290.585, 268.822 298.979, 269.750 299.088 C 271.068 299.242, 276.439 299.271, 278.250 299.133 C 279.666 299.025, 280 298.045, 280 294 L 280 289 275.167 289 C 272.508 289, 270.033 289.300, 269.667 289.667 M 282.198 294.250 L 282.500 299.500 287 299.487 L 291.500 299.474 291.802 294.237 L 292.105 289 287 289 L 281.895 289 282.198 294.250 M 378.086 293.527 C 377.985 295.908, 380.616 300, 382.248 300 C 382.872 300, 382.612 299.437, 381.671 298.749 C 380.730 298.061, 379.558 296.148, 379.066 294.499 C 378.436 292.385, 378.147 292.098, 378.086 293.527 M 390.519 294.939 C 390.154 296.089, 389.444 296.774, 388.939 296.463 C 388.435 296.151, 388.313 296.652, 388.667 297.575 C 389.204 298.974, 389.548 298.801, 390.734 296.538 C 391.516 295.045, 391.937 293.604, 391.670 293.336 C 391.402 293.068, 390.884 293.790, 390.519 294.939 M 382.311 313.748 C 390.457 313.916, 403.507 313.916, 411.311 313.747 C 419.115 313.579, 412.450 313.441, 396.500 313.441 C 380.550 313.442, 374.165 313.580, 382.311 313.748 M 409.750 327.989 C 411.538 329.079, 413 330.502, 413 331.152 C 413 331.802, 413.236 332.098, 413.524 331.810 C 414.547 330.787, 412.853 328.254, 410.398 327.135 C 406.507 325.363, 406.170 325.806, 409.750 327.989 M 381.313 327.786 C 379.095 329.196, 378.077 333.520, 379.355 336.099 C 380.916 339.247, 387.729 340.091, 389.710 337.382 C 391.562 334.849, 391.299 330.580, 389.171 328.655 C 387.260 326.926, 383.346 326.493, 381.313 327.786 M 125.201 336.245 L 125.402 344.500 125.743 336.750 L 126.084 329 215.042 329 L 304 329 304 340 C 304 346.050, 304.337 351.001, 304.750 351.002 C 305.163 351.003, 305.275 345.941, 305 339.752 L 304.500 328.500 214.750 328.245 L 125 327.989 125.201 336.245 M 401.136 333.076 C 400.978 336.076, 404.653 340, 407.623 340 C 408.720 340, 410.491 339.300, 411.559 338.445 C 413.434 336.943, 413.426 336.926, 411.316 337.945 C 406.572 340.237, 402.679 338.229, 401.727 333 L 401.272 330.500 401.136 333.076 M 238.494 335.006 C 235.938 337.831, 237.026 338.093, 239.714 335.301 C 240.932 334.035, 241.564 333, 241.119 333 C 240.674 333, 239.493 333.903, 238.494 335.006 M 250.116 339.750 C 250.052 340.988, 249.100 342.900, 248 344 C 246.900 345.100, 246.440 346, 246.977 346 C 248.565 346, 251.205 341.249, 250.699 339.299 C 250.332 337.885, 250.207 337.981, 250.116 339.750 M 210.500 360.500 C 210.500 365.725, 210.838 370, 211.250 370 C 211.662 370, 212 365.725, 212 360.500 C 212 355.275, 211.662 351, 211.250 351 C 210.838 351, 210.500 355.275, 210.500 360.500 M 214.500 352 C 214.840 352.550, 215.879 353, 216.809 353.001 C 217.739 353.001, 220.975 353.942, 224 355.091 C 227.025 356.241, 229.500 357.065, 229.500 356.922 C 229.500 356.780, 233.325 357.833, 238 359.264 C 252.880 363.817, 270.400 368.783, 273.500 369.325 L 276.500 369.850 276.500 360.425 L 276.500 351 245.191 351 C 224.573 351, 214.093 351.341, 214.500 352 M 381.543 366.931 C 381.226 367.443, 381.494 368.187, 382.138 368.585 C 382.894 369.052, 383.040 368.874, 382.552 368.083 C 381.999 367.189, 382.700 366.945, 385.147 367.179 C 387.833 367.436, 388.848 368.197, 390.248 371 C 391.210 372.925, 391.998 373.773, 391.998 372.885 C 392.001 369.890, 388.039 366, 384.986 366 C 383.409 366, 381.859 366.419, 381.543 366.931 M 403.550 368.359 C 400.691 371.218, 400.498 372.178, 402.150 375.316 C 404.381 379.554, 408.706 380.294, 412 377 C 415.706 373.294, 414.012 367.715, 408.800 366.459 C 406.707 365.955, 405.528 366.381, 403.550 368.359 M 378.086 372.559 C 378.039 373.691, 378.708 375.491, 379.574 376.559 C 380.440 377.626, 380.842 377.902, 380.467 377.172 C 380.092 376.441, 379.422 374.641, 378.979 373.172 C 378.331 371.028, 378.155 370.907, 378.086 372.559" stroke="none" fill="#b2e0f1" fill-rule="evenodd"/></svg>