<svg xmlns="http://www.w3.org/2000/svg" width="360" height="360" viewBox="0 0 360 360" version="1.1"><path d="M 181.648 102.415 C 179.411 105.829, 179.570 111.183, 182 114.273 C 183.100 115.671, 184 117.602, 184 118.563 C 184 120.177, 183.864 120.187, 182.213 118.693 C 177.695 114.604, 168.716 112.691, 167.607 115.582 C 166.442 118.617, 167.023 120.044, 170.250 122.077 C 172.807 123.687, 174.608 124.021, 178.693 123.640 C 182.131 123.320, 184.047 123.552, 184.364 124.328 C 184.627 124.973, 184.878 124.713, 184.921 123.750 C 185.014 121.694, 185.168 121.664, 188.279 123.081 C 191.219 124.421, 199.855 122.177, 201.442 119.661 C 202.980 117.223, 200.922 114.562, 197.213 114.191 C 193.910 113.861, 188.277 116.289, 186.282 118.904 C 185.183 120.344, 185.060 120.326, 185.032 118.715 C 185.014 117.733, 185.699 115.863, 186.553 114.560 C 187.623 112.927, 188.011 110.372, 187.803 106.345 C 187.541 101.283, 187.218 100.460, 185.398 100.200 C 184.041 100.006, 182.712 100.791, 181.648 102.415 M 184.195 128.500 C 184.215 130.150, 184.439 130.704, 184.693 129.731 C 184.947 128.758, 184.930 127.408, 184.656 126.731 C 184.382 126.054, 184.175 126.850, 184.195 128.500 M 171.783 128.750 C 169.243 131.663, 168 134.703, 168 138.006 C 168 141.341, 166.087 144, 163.688 144 C 161.954 144, 155 151.446, 155 153.303 C 155 155.187, 157.108 157, 159.300 157 C 161.894 157, 168 150.704, 168 148.029 C 168 145.769, 169.219 144.261, 172.542 142.409 C 176.920 139.970, 179.816 128.911, 176.418 127.607 C 174.041 126.695, 173.449 126.840, 171.783 128.750 M 191.250 127.651 C 187.711 129.112, 191.497 141.071, 195.946 142.483 C 197.091 142.846, 197.771 143.562, 197.456 144.072 C 197.140 144.582, 197.310 145, 197.833 145 C 198.355 145, 199.067 146.129, 199.413 147.509 C 200.114 150.303, 207.295 156, 210.115 156 C 212.264 156, 214.237 152.781, 213.410 150.625 C 212.467 148.169, 206.341 144, 203.674 144 C 201.027 144, 200.010 142.393, 199.984 138.168 C 199.963 134.830, 195.945 127.582, 193.973 127.326 C 193.163 127.221, 191.938 127.367, 191.250 127.651 M 151.484 131.049 C 149.888 136.080, 161.911 145.190, 164.537 140.940 C 165.648 139.142, 163.074 134.637, 159.286 131.750 C 154.995 128.480, 152.375 128.244, 151.484 131.049 M 207.171 132.509 C 205.531 133.889, 203.721 136.362, 203.149 138.004 C 202.196 140.736, 202.318 141.042, 204.583 141.610 C 207.272 142.285, 214.304 138.169, 216.056 134.895 C 218.701 129.952, 212.264 128.224, 207.171 132.509 M 183.625 152.798 C 183.354 153.237, 183.545 154.249, 184.051 155.048 C 184.768 156.182, 184.973 156.007, 184.985 154.250 C 185 151.937, 184.492 151.394, 183.625 152.798 M 177.200 160.200 C 176.540 160.860, 175.997 162.548, 175.994 163.950 C 175.989 165.736, 175.085 167.014, 172.976 168.213 C 169.508 170.187, 168.240 172.640, 169.854 174.254 C 170.680 175.080, 171.632 174.755, 173.487 173.012 C 174.869 171.714, 176 170.232, 176 169.720 C 176 169.208, 177.125 167.452, 178.500 165.818 C 181.183 162.629, 181.822 159, 179.700 159 C 178.985 159, 177.860 159.540, 177.200 160.200 M 184.158 161 C 184.158 162.375, 184.385 162.938, 184.662 162.250 C 184.940 161.563, 184.940 160.438, 184.662 159.750 C 184.385 159.063, 184.158 159.625, 184.158 161 M 167 161.345 C 167 163.155, 170.257 166, 172.329 166 C 174.623 166, 174.423 164.472, 171.811 162.039 C 169.306 159.705, 167 159.372, 167 161.345 M 187 161.750 C 187 162.713, 188.816 165.487, 191.035 167.915 C 194.019 171.179, 195.363 172.037, 196.193 171.207 C 197.595 169.805, 195.555 167.002, 193.128 166.996 C 192.167 166.994, 192.831 166.181, 194.750 165.011 C 198.002 163.028, 199.046 161, 196.814 161 C 196.162 161, 194.643 161.926, 193.438 163.059 L 191.246 165.117 190.604 162.559 C 189.883 159.686, 187 159.039, 187 161.750" stroke="none" fill="#286c3a" fill-rule="evenodd"/><path d="M 180.954 101.086 C 180.340 102.233, 180.063 103.396, 180.338 103.671 C 180.613 103.946, 181.355 103.205, 181.987 102.025 C 182.733 100.630, 183.899 99.987, 185.318 100.189 C 187.235 100.462, 187.537 101.211, 187.803 106.345 C 188.011 110.372, 187.623 112.927, 186.553 114.560 C 185.699 115.863, 185.014 117.733, 185.032 118.715 C 185.060 120.320, 185.186 120.340, 186.282 118.913 C 187.911 116.792, 191.728 114.802, 196 113.848 L 199.500 113.066 195.500 113.435 C 193.300 113.637, 190.777 114.096, 189.893 114.453 C 188.469 115.030, 188.389 114.447, 189.195 109.313 C 190.360 101.882, 189.204 99, 185.057 99 C 183.053 99, 181.703 99.686, 180.954 101.086 M 179.158 108 C 179.158 109.375, 179.385 109.938, 179.662 109.250 C 179.940 108.563, 179.940 107.438, 179.662 106.750 C 179.385 106.063, 179.158 106.625, 179.158 108 M 179 112.800 C 179 113.240, 179.563 114.206, 180.250 114.947 C 181.278 116.055, 181.145 116.159, 179.500 115.534 C 175.408 113.977, 173.621 113.946, 176.970 115.489 C 178.879 116.369, 181.241 117.813, 182.220 118.699 C 183.868 120.190, 183.998 120.168, 183.967 118.405 C 183.918 115.617, 179 110.067, 179 112.800 M 169.750 113.662 C 170.438 113.940, 171.563 113.940, 172.250 113.662 C 172.938 113.385, 172.375 113.158, 171 113.158 C 169.625 113.158, 169.063 113.385, 169.750 113.662 M 166.607 115.582 C 166.273 116.452, 166 117.784, 166 118.543 C 166 120.364, 169.960 124.001, 171.939 123.996 C 172.797 123.994, 171.986 123.070, 170.136 121.942 C 167.218 120.163, 166.850 119.500, 167.361 116.945 C 167.997 113.765, 167.588 113.025, 166.607 115.582 M 201.232 116 C 202.240 117.614, 202.220 118.434, 201.129 120.250 C 199.853 122.373, 199.875 122.406, 201.518 120.835 C 203.344 119.088, 202.938 114, 200.972 114 C 200.406 114, 200.518 114.856, 201.232 116 M 184.985 123.750 C 184.974 124.937, 184.724 125.114, 184.207 124.301 C 183.653 123.429, 182.090 123.346, 178.473 123.998 C 173.668 124.863, 173.642 124.886, 177.682 124.677 C 181.631 124.472, 181.888 124.629, 182.305 127.480 C 182.548 129.141, 182.821 135.370, 182.912 141.322 C 183.046 150.017, 182.821 151.982, 181.770 151.322 C 181.051 150.870, 178.542 149.192, 176.194 147.593 L 171.927 144.686 174.367 142.093 C 179.188 136.970, 180.549 128.693, 176.938 126.462 C 173.245 124.179, 167.034 130.813, 166.961 137.118 L 166.922 140.500 165.582 137.422 C 163.935 133.640, 157.285 128, 154.472 128 C 151.866 128, 150 129.817, 150 132.356 C 150 135.364, 154.620 140.733, 158.379 142.092 L 161.754 143.313 158.391 146.675 C 154.525 150.542, 153.216 154.351, 155.011 156.513 C 156.942 158.840, 161.591 158.318, 164.455 155.455 C 167.979 151.930, 167.647 151.278, 163.923 154.411 C 162.231 155.835, 160.071 157, 159.123 157 C 157.086 157, 155 155.130, 155 153.303 C 155 151.446, 161.954 144, 163.688 144 C 166.084 144, 168 141.343, 168 138.022 C 168 132.074, 172.331 126.335, 175.952 127.485 C 179.830 128.716, 177.308 139.754, 172.542 142.409 C 169.308 144.211, 167.996 145.757, 168.070 147.679 C 168.134 149.334, 168.203 149.344, 168.820 147.794 C 169.430 146.264, 169.916 146.367, 173.526 148.794 C 181.011 153.825, 183 155.768, 183 158.049 C 183 160.199, 182.908 160.226, 181.119 158.608 C 179.385 157.039, 179.111 157.032, 177.619 158.524 C 176.728 159.414, 176 160.426, 176 160.771 C 176 161.117, 176.540 160.860, 177.200 160.200 C 177.860 159.540, 178.985 159, 179.700 159 C 181.822 159, 181.183 162.629, 178.500 165.818 C 177.125 167.452, 176 169.208, 176 169.720 C 176 170.232, 174.869 171.714, 173.487 173.012 C 171.632 174.755, 170.680 175.080, 169.854 174.254 C 168.240 172.640, 169.508 170.187, 172.976 168.213 C 175.016 167.053, 175.989 165.721, 175.994 164.083 C 175.997 162.754, 175.713 161.954, 175.361 162.305 C 175.010 162.657, 173.402 161.833, 171.789 160.476 C 169.460 158.516, 168.458 158.220, 166.928 159.039 C 165.867 159.606, 165 160.525, 165 161.081 C 165 162.509, 169.661 167, 171.143 167 C 171.822 167, 171.392 167.918, 170.189 169.039 C 167.649 171.405, 167.412 173.267, 169.436 174.947 C 170.997 176.242, 175 174.816, 175 172.965 C 175 172.434, 175.563 172.112, 176.250 172.250 C 176.938 172.387, 177.387 171.938, 177.250 171.250 C 177.112 170.563, 177.424 170, 177.943 170 C 179.571 170, 182 174.324, 182 177.223 L 182 180 172.059 180 C 166.591 180, 161.883 180.380, 161.597 180.844 C 160.809 182.118, 162.899 188.835, 164.359 189.722 C 165.547 190.444, 166.336 193.369, 170.561 212.692 L 172.134 219.884 184.086 220.192 C 197.557 220.539, 197.995 220.475, 198.013 218.167 C 198.044 214.026, 204 190.471, 205.252 189.540 C 206.454 188.645, 209 182.908, 209 181.094 C 209 180.759, 207.088 180.625, 204.750 180.795 C 202.412 180.965, 197.350 180.743, 193.500 180.302 L 186.500 179.500 186.415 175.755 C 186.363 173.430, 186.968 171.434, 188.011 170.490 C 189.523 169.122, 189.949 169.172, 192.257 170.987 C 196.089 174.002, 200.147 171.547, 196.824 168.224 C 195.922 167.322, 196.038 166.615, 197.324 165.195 C 200.860 161.287, 198.551 158.564, 193.839 161.086 C 192.181 161.974, 191.547 161.798, 190.377 160.128 C 189.564 158.966, 188.309 158.328, 187.473 158.649 C 186.467 159.035, 186 158.555, 186 157.139 C 186 155.782, 187.906 153.655, 191.502 150.999 L 197.003 146.934 200.150 150.518 C 205.926 157.096, 212.315 158.931, 214.002 154.496 C 215.278 151.139, 213.668 147.808, 209.665 145.526 C 206.554 143.753, 206.564 143.782, 210.250 147.246 C 212.313 149.184, 214 151.076, 214 151.451 C 214 153.328, 211.718 156, 210.115 156 C 207.295 156, 200.114 150.303, 199.413 147.509 C 199.067 146.129, 198.355 145, 197.833 145 C 197.310 145, 197.140 144.582, 197.456 144.072 C 197.771 143.562, 197.091 142.846, 195.946 142.483 C 190.827 140.858, 187.709 128.862, 192.048 127.485 C 194.546 126.692, 196.385 128.100, 198.027 132.065 C 198.710 133.715, 199.479 134.854, 199.736 134.598 C 199.992 134.341, 199.174 132.302, 197.917 130.066 C 195.221 125.270, 191.942 124.633, 189.459 128.422 C 188.107 130.485, 188.056 131.455, 189.112 134.981 C 189.794 137.257, 191.679 140.235, 193.302 141.600 C 194.924 142.965, 196.082 144.202, 195.876 144.348 C 195.669 144.495, 193.635 146.051, 191.356 147.807 C 189.077 149.563, 186.939 151, 186.606 151 C 186.273 151, 186 144.876, 186 137.392 L 186 123.783 188.750 124.400 L 191.500 125.016 189 123.544 C 185.715 121.609, 185.003 121.645, 184.985 123.750 M 194.105 123.085 C 192.787 123.612, 191.948 124.281, 192.238 124.572 C 192.529 124.863, 194.282 124.440, 196.134 123.632 C 199.814 122.026, 197.984 121.533, 194.105 123.085 M 184.195 128.500 C 184.215 130.150, 184.439 130.704, 184.693 129.731 C 184.947 128.758, 184.930 127.408, 184.656 126.731 C 184.382 126.054, 184.175 126.850, 184.195 128.500 M 151.484 131.049 C 149.888 136.080, 161.911 145.190, 164.537 140.940 C 165.648 139.142, 163.074 134.637, 159.286 131.750 C 154.995 128.480, 152.375 128.244, 151.484 131.049 M 207.500 130.841 C 205.850 131.849, 203.857 133.881, 203.071 135.356 C 202.040 137.291, 201.417 137.685, 200.836 136.769 C 200.326 135.965, 200.031 136.599, 200.031 138.500 C 200.031 143.149, 201.258 144.362, 205.212 143.620 C 211.904 142.365, 218.649 135.723, 217.576 131.446 C 217.083 129.482, 216.326 129.001, 213.731 129.004 C 211.954 129.006, 209.150 129.832, 207.500 130.841 M 207.171 132.509 C 205.531 133.889, 203.721 136.362, 203.149 138.004 C 202.196 140.736, 202.318 141.042, 204.583 141.610 C 207.272 142.285, 214.304 138.169, 216.056 134.895 C 218.701 129.952, 212.264 128.224, 207.171 132.509 M 183.625 152.798 C 183.354 153.237, 183.545 154.249, 184.051 155.048 C 184.768 156.182, 184.973 156.007, 184.985 154.250 C 185 151.937, 184.492 151.394, 183.625 152.798 M 184.158 161 C 184.158 162.375, 184.385 162.938, 184.662 162.250 C 184.940 161.563, 184.940 160.438, 184.662 159.750 C 184.385 159.063, 184.158 159.625, 184.158 161 M 167 161.345 C 167 163.155, 170.257 166, 172.329 166 C 174.623 166, 174.423 164.472, 171.811 162.039 C 169.306 159.705, 167 159.372, 167 161.345 M 186.547 163.602 C 185.794 167.613, 186.428 168.972, 188.217 167.183 C 189.128 166.272, 189.124 166, 188.200 166 C 187.540 166, 187 165.438, 187 164.750 C 187 164.063, 188.816 165.487, 191.035 167.915 C 194.019 171.179, 195.363 172.037, 196.193 171.207 C 197.595 169.805, 195.555 167.002, 193.128 166.996 C 192.167 166.994, 192.831 166.181, 194.750 165.011 C 198.002 163.028, 199.046 161, 196.814 161 C 196.162 161, 194.643 161.926, 193.438 163.059 L 191.246 165.117 190.604 162.559 C 189.663 158.808, 187.334 159.407, 186.547 163.602 M 180.830 164.500 C 179.354 167.757, 179.363 168, 180.960 168 C 182.229 168, 182.710 167.089, 182.808 164.500 C 182.880 162.575, 182.822 161, 182.678 161 C 182.534 161, 181.703 162.575, 180.830 164.500" stroke="none" fill="#865933" fill-rule="evenodd"/></svg>